<?xml version="1.0" encoding="utf-8"?>
<!-- Generator: Adobe Illustrator 19.0.0, SVG Export Plug-In . SVG Version: 6.00 Build 0)  -->
<svg version="1.1" id="Layer_1" xmlns="http://www.w3.org/2000/svg" xmlns:xlink="http://www.w3.org/1999/xlink" x="0px" y="0px"
	 viewBox="0 0 151.9 228.9" style="enable-background:new 0 0 151.9 228.9;" xml:space="preserve">
<style type="text/css">
	.st0{fill:#915333;}
	.st1{fill:#755A24;}
	.st2{fill:#AF8D5E;}
	.st3{fill:#D08C29;}
	.st4{fill:#522F1D;}
	.st5{fill:#B3892E;}
	.st6{fill:#C6AC88;}
	.st7{fill:#E0A377;}
	.st8{fill:#F5BB3A;}
	.st9{fill:#D3AD31;}
	.st10{fill:#E1B476;}
	.st11{fill:#EC7B31;}
	.st12{fill:#E9BE9D;}
	.st13{fill:#D88A54;}
	.st14{fill:#FAAF40;}
	.st15{fill:#D89E4E;}
	.st16{fill:#F6921E;}
	.st17{fill:#B6A875;}
	.st18{fill:#A77238;}
	.st19{fill:#D17432;}
</style>
<g id="XMLID_85_">
	<polygon id="XMLID_469_" class="st0" points="42.5,34 95.6,34 79.1,56.8 	"/>
	<polygon id="XMLID_468_" class="st1" points="95.6,34 128.5,45.4 79.1,56.8 	"/>
	<polygon id="XMLID_120_" class="st2" points="42.5,34 13.8,56.8 44.6,56.8 	"/>
	<polygon id="XMLID_122_" class="st3" points="79.1,56.8 42.5,34 44.6,56.8 	"/>
	<polygon id="XMLID_123_" class="st4" points="128.5,45.4 151.9,79.7 120,72.8 	"/>
	<polygon id="XMLID_119_" class="st5" points="120,72.8 89.2,72.8 79.1,56.8 128.5,45.4 	"/>
	<polygon id="XMLID_125_" class="st6" points="13.8,56.8 0,79.7 32.9,72.8 	"/>
	<polygon id="XMLID_124_" class="st1" points="89.2,72.8 32.9,72.8 44.6,56.8 79.1,56.8 	"/>
	<polygon id="XMLID_127_" class="st7" points="13.8,56.8 44.6,56.8 32.9,72.8 	"/>
	<polygon id="XMLID_118_" class="st1" points="60.8,12.7 61.1,34 79.1,34 	"/>
	<polygon id="XMLID_117_" class="st5" points="79.1,0 79.1,34 60.8,12.7 	"/>
	<polygon id="XMLID_116_" class="st3" points="32.9,72.8 69,132.2 89.2,72.8 	"/>
	<polygon id="XMLID_126_" class="st8" points="140.2,77.1 120,72.8 89.2,72.8 70,129.5 	"/>
	<polygon id="XMLID_115_" class="st9" points="32.9,72.8 25,112.6 69,132.2 	"/>
	<polygon id="XMLID_101_" class="st10" points="10.1,77.5 10.1,137.6 25,112.6 32.9,72.8 	"/>
	<polygon id="XMLID_100_" class="st11" points="140.2,77.1 140.2,120.6 69,132.2 70,129.5 	"/>
	<polygon id="XMLID_99_" class="st12" points="25,112.6 10.1,137.6 37.2,186.8 	"/>
	<polygon id="XMLID_98_" class="st13" points="69,132.2 37.2,186.8 25,112.6 	"/>
	<polygon id="XMLID_97_" class="st14" points="140.2,120.6 69,132.2 98.5,150.8 	"/>
	<polygon id="XMLID_94_" class="st15" points="37.2,186.8 70,180.8 69,132.2 	"/>
	<polygon id="XMLID_93_" class="st9" points="98.5,150.8 70,180.8 69,132.2 	"/>
	<polygon id="XMLID_92_" class="st16" points="140.2,120.6 138.6,137.6 120,186.8 98.5,150.8 	"/>
	<polygon id="XMLID_91_" class="st17" points="37.2,186.8 64.5,211.1 70,180.8 	"/>
	<polygon id="XMLID_90_" class="st8" points="120,186.8 98.5,211.1 70,180.8 	"/>
	<polygon id="XMLID_89_" class="st9" points="64.5,211.1 72,211.1 98.5,211.1 70,180.8 	"/>
	<polygon id="XMLID_87_" class="st18" points="72,211.1 90.5,211.1 81.3,228.9 	"/>
	<polygon id="XMLID_86_" class="st19" points="98.5,150.8 70,180.8 120,186.8 	"/>
</g>
</svg>
