<?xml version="1.0" encoding="utf-8"?>
<!-- Generator: Adobe Illustrator 19.0.0, SVG Export Plug-In . SVG Version: 6.00 Build 0)  -->
<svg version="1.1" id="Layer_1" xmlns="http://www.w3.org/2000/svg" xmlns:xlink="http://www.w3.org/1999/xlink" x="0px" y="0px"
	 viewBox="0 0 536.2 441.8" style="enable-background:new 0 0 536.2 441.8;" xml:space="preserve">
<style type="text/css">
	.st0{fill:#021A23;}
	.st1{fill:#D9E7E9;}
	.st2{fill:#B0CACC;}
	.st3{fill:#BBE4EB;}
	.st4{fill:#F0F9FB;}
	.st5{fill:#E0FFFF;}
	.st6{fill:#003752;}
	.st7{fill:#779296;}
	.st8{fill:none;}
	.st9{fill:#72AEC9;}
	.st10{fill:#526D7F;}
	.st11{fill:#8EA4A6;}
	.st12{fill:#FFFFFF;}
</style>
<g id="XMLID_380_">
	<polygon id="XMLID_2083_" class="st0" points="334.7,77.9 336.9,72.3 342.9,69.7 351.5,73.8 348.5,80.5 343.1,82.2 	"/>
	<polygon id="XMLID_2082_" class="st1" points="369.6,89.1 348.5,80.5 343.1,82.2 343.1,102 	"/>
	<polygon id="XMLID_2081_" class="st2" points="351.5,60.7 342.9,69.7 351.5,73.8 365.3,67.3 	"/>
	<polygon id="XMLID_2080_" class="st1" points="365.3,37.9 351.5,60.7 365.3,67.3 	"/>
	<polygon id="XMLID_2079_" class="st3" points="369.6,89.1 365.3,67.3 351.5,73.8 348.5,80.5 	"/>
	<polygon id="XMLID_2078_" class="st2" points="403.6,102 369.6,89.1 403.6,44.8 	"/>
	<polygon id="XMLID_2077_" class="st3" points="388.5,25.8 403.6,44.8 365.3,37.9 	"/>
	<polygon id="XMLID_2076_" class="st1" points="365.3,67.3 403.6,44.8 365.3,37.9 	"/>
	<polygon id="XMLID_2075_" class="st2" points="379.5,0 388.5,25.8 365.3,37.9 	"/>
	<polygon id="XMLID_2074_" class="st4" points="332.6,18.9 379.5,0 365.3,37.9 	"/>
	<polygon id="XMLID_2073_" class="st4" points="299,60.7 332.6,18.9 329.1,39.8 	"/>
	<polygon id="XMLID_2072_" class="st3" points="332.6,56.4 329.1,39.8 332.6,18.9 365.3,37.9 	"/>
	<polygon id="XMLID_2071_" class="st5" points="336.9,72.3 332.6,56.4 365.3,37.9 351.5,60.7 342.9,69.7 	"/>
	<polygon id="XMLID_2070_" class="st4" points="305.5,80.5 299,60.7 319.2,67.3 	"/>
	<polygon id="XMLID_2069_" class="st1" points="329.1,39.8 319.2,67.3 332.6,56.4 	"/>
	<polygon id="XMLID_2068_" class="st5" points="334.7,77.9 305.5,80.5 319.2,67.3 336.9,72.3 	"/>
	<polygon id="XMLID_2067_" class="st5" points="343.1,82.2 334.7,77.9 343.1,102 	"/>
	<polygon id="XMLID_2066_" class="st2" points="309.1,102 334.7,77.9 343.1,102 	"/>
	<polygon id="XMLID_2065_" class="st1" points="305.5,80.5 309.1,102 334.7,77.9 	"/>
	<polygon id="XMLID_2064_" class="st5" points="299,108.9 305.5,80.5 309.1,102 	"/>
	<polygon id="XMLID_2063_" class="st1" points="296.8,130.8 289.5,124.4 299,108.9 309.1,102 	"/>
	<polygon id="XMLID_2062_" class="st2" points="292.5,102 305.5,80.5 299,108.9 	"/>
	<polygon id="XMLID_2061_" class="st1" points="286.1,102 305.5,80.5 292.5,102 	"/>
	<polygon id="XMLID_2060_" class="st5" points="268,123.5 286.1,102 292.5,102 283.1,120.1 	"/>
	<polygon id="XMLID_2059_" class="st6" points="275.8,133.9 268,125.7 268,123.5 283.1,120.1 289.5,124.4 286.1,130.8 	"/>
	<polygon id="XMLID_2058_" class="st7" points="284.6,143.5 275.8,133.9 286.1,130.8 	"/>
	<polygon id="XMLID_2057_" class="st2" points="296.8,130.8 315.8,128.7 312.1,136 284.6,143.5 286.1,130.8 289.5,124.4 	"/>
	<polygon id="XMLID_2056_" class="st3" points="347.2,120.1 315.8,128.7 296.8,130.8 309.1,102 	"/>
	<polygon id="XMLID_2055_" class="st4" points="343.1,102 347.2,120.1 369.6,89.1 	"/>
	<polygon id="XMLID_2054_" class="st1" points="346.1,142.3 315.8,139.2 321.2,127.2 347.2,120.1 	"/>
	<polygon id="XMLID_2053_" class="st7" points="324.6,150.6 315.8,139.2 346.1,142.3 	"/>
	<polygon id="XMLID_2052_" class="st2" points="300.2,154.1 292.5,146.3 315.8,139.2 324.6,150.6 	"/>
	<polygon id="XMLID_2051_" class="st0" points="284.6,143.5 292.5,146.3 315.8,139.2 321.2,127.2 315.8,128.7 312.1,136 	"/>
	<polygon id="XMLID_2050_" class="st8" points="307.9,49.6 296.8,40.9 296.8,27.3 315.8,31.9 319.4,35.3 	"/>
	<polygon id="XMLID_2049_" class="st3" points="304.1,39.8 319.4,35.3 315.8,31.9 296.8,27.3 	"/>
	<polygon id="XMLID_2048_" class="st2" points="307.9,49.6 304.1,39.8 319.4,35.3 	"/>
	<polygon id="XMLID_2047_" class="st5" points="388.5,25.8 396.5,6 379.5,0 	"/>
	<polygon id="XMLID_2046_" class="st1" points="411.8,4.7 396.5,6 388.5,25.8 396.5,22.8 400.2,14.4 407.5,12.9 	"/>
	<polygon id="XMLID_2045_" class="st6" points="409.4,18.9 407.5,12.9 400.2,14.4 396.5,22.8 398.6,29.3 404.7,27.3 	"/>
	<polygon id="XMLID_2044_" class="st4" points="396.5,35.8 398.6,29.3 396.5,22.8 388.5,25.8 	"/>
	<polygon id="XMLID_2043_" class="st4" points="411.8,4.7 416.3,18.9 409.4,18.9 407.5,12.9 	"/>
	<polygon id="XMLID_2042_" class="st9" points="409.4,31.9 404.7,27.3 409.4,18.9 416.3,18.9 	"/>
	<polygon id="XMLID_2041_" class="st1" points="400.2,39.8 409.4,31.9 404.7,27.3 398.6,29.3 396.5,35.8 	"/>
	<polygon id="XMLID_2040_" class="st7" points="403.6,44.8 457.8,31.9 415.1,15.3 416.3,18.9 409.4,31.9 400.2,39.8 	"/>
	<polygon id="XMLID_2039_" class="st3" points="403.6,102 347.2,120.1 369.6,89.1 	"/>
	<polygon id="XMLID_2038_" class="st9" points="346.1,142.3 380.6,136.8 347.2,120.1 	"/>
	<polygon id="XMLID_2037_" class="st2" points="403.6,102 380.6,136.8 347.2,120.1 	"/>
	<polygon id="XMLID_2036_" class="st2" points="457.8,31.9 474.4,70.6 424.7,65 403.6,44.8 	"/>
	<polygon id="XMLID_2035_" class="st9" points="420.2,122.5 403.6,102 380.6,136.8 	"/>
	<polygon id="XMLID_2034_" class="st3" points="403.6,44.8 424.7,65 403.6,67.3 	"/>
	<polygon id="XMLID_2033_" class="st7" points="426.2,100.9 424.7,65 403.6,67.3 403.6,102 420.2,122.5 	"/>
	<polygon id="XMLID_2032_" class="st1" points="474.4,70.6 486.2,92.3 426.2,100.9 424.7,65 	"/>
	<polygon id="XMLID_2031_" class="st3" points="420.2,122.5 426.2,100.9 486.2,92.3 	"/>
	<polygon id="XMLID_2030_" class="st1" points="472.5,144.9 486.2,92.3 420.2,122.5 	"/>
	<polygon id="XMLID_2029_" class="st7" points="380.6,136.8 361.9,139.8 382.9,152.6 420.2,122.5 	"/>
	<polygon id="XMLID_2028_" class="st2" points="472.5,144.9 451.4,193.5 418.7,166.6 420.2,122.5 	"/>
	<polygon id="XMLID_2027_" class="st2" points="382.9,152.6 418.7,166.6 420.2,122.5 	"/>
	<polygon id="XMLID_2026_" class="st8" points="405.3,196.5 418.7,166.6 418.7,196.5 	"/>
	<polygon id="XMLID_2025_" class="st7" points="451.4,193.5 422.3,263.9 418.7,196.5 418.7,166.6 	"/>
	<polygon id="XMLID_2024_" class="st5" points="470.7,213.1 451.4,193.5 472.5,144.9 	"/>
	<polygon id="XMLID_2023_" class="st3" points="405.3,196.5 378.4,196.5 361.9,139.8 382.9,152.6 418.7,166.6 	"/>
	<polygon id="XMLID_2022_" class="st9" points="422.3,263.9 452.4,265.4 435,233.3 	"/>
	<polygon id="XMLID_2021_" class="st2" points="470.7,213.1 452.4,265.4 435,233.3 	"/>
	<polygon id="XMLID_2020_" class="st9" points="451.4,193.5 470.7,213.1 435,233.3 	"/>
	<polygon id="XMLID_2019_" class="st10" points="422.3,263.9 412.8,263.9 420.6,232.5 	"/>
	<polygon id="XMLID_2018_" class="st2" points="397.4,265.4 412.8,263.9 420.6,232.5 418.7,196.5 378.4,196.5 	"/>
	<polygon id="XMLID_2017_" class="st7" points="412.8,311.2 412.8,263.9 422.3,263.9 426.6,306.7 	"/>
	<polygon id="XMLID_2016_" class="st11" points="452.4,265.4 437.4,311.2 426.6,306.7 422.3,263.9 	"/>
	<polygon id="XMLID_2015_" class="st3" points="470.7,213.1 476.8,260 452.4,265.4 	"/>
	<polygon id="XMLID_2014_" class="st5" points="478.7,291.4 476.8,260 452.4,265.4 	"/>
	<polygon id="XMLID_2013_" class="st4" points="512.5,349.9 478.7,291.4 503.5,374.9 	"/>
	<polygon id="XMLID_2012_" class="st10" points="437.4,311.2 458.7,349.7 426.6,317 426.6,306.7 	"/>
	<polygon id="XMLID_2011_" class="st1" points="503.5,374.9 487.7,385.2 452.4,265.4 478.7,291.4 	"/>
	<polygon id="XMLID_2010_" class="st2" points="458.7,349.7 478.7,401.8 487.7,385.2 452.4,265.4 437.4,311.2 	"/>
	<polygon id="XMLID_2009_" class="st7" points="486,424.2 478.7,401.8 487.7,385.2 498.9,424.2 	"/>
	<polygon id="XMLID_2008_" class="st3" points="503.5,374.9 522,424.2 498.9,424.2 487.7,385.2 	"/>
	<polygon id="XMLID_2007_" class="st1" points="512.5,349.9 536.2,424.2 522,424.2 503.5,374.9 	"/>
	<polygon id="XMLID_2006_" class="st10" points="412.8,311.2 419.7,353.8 424.7,352.7 426.6,317 426.6,306.7 	"/>
	<polygon id="XMLID_2005_" class="st3" points="397.4,265.4 411.3,356.6 419.7,353.8 412.8,311.2 412.8,263.9 	"/>
	<polygon id="XMLID_2004_" class="st9" points="408.5,388.7 411.3,356.6 419.7,353.8 424.7,352.7 423,392.3 	"/>
	<polygon id="XMLID_2003_" class="st1" points="397.4,265.4 398.2,356.6 411.3,356.6 	"/>
	<polygon id="XMLID_2002_" class="st1" points="378.4,196.5 361.9,286.2 397.4,265.4 	"/>
	<polygon id="XMLID_2001_" class="st1" points="361.9,139.8 324.6,232.5 378.4,196.5 	"/>
	<polygon id="XMLID_2000_" class="st5" points="361.9,286.2 348.7,293.5 324.6,232.5 367.3,256.7 	"/>
	<polygon id="XMLID_1999_" class="st2" points="378.4,196.5 324.6,232.5 367.3,256.7 	"/>
	<polygon id="XMLID_1998_" class="st4" points="398.2,356.6 387.2,356.6 383.8,338.7 398,334.7 	"/>
	<polygon id="XMLID_1997_" class="st4" points="348.7,293.5 361.9,286.2 397.4,265.4 398,334.7 383.8,338.7 	"/>
	<polygon id="XMLID_1996_" class="st5" points="387.2,356.6 394.3,403.7 404.3,409.3 408.5,388.7 411.3,356.6 398.2,356.6 	"/>
	<polygon id="XMLID_1995_" class="st2" points="423,392.3 431.4,430.4 401.9,430.4 404.3,409.3 408.5,388.7 	"/>
	<polygon id="XMLID_1994_" class="st1" points="394.3,403.7 378,408 383.8,430.4 401.9,430.4 404.3,409.3 	"/>
	<polygon id="XMLID_1993_" class="st3" points="383.8,338.7 360.6,349.9 378,408 394.3,403.7 387.2,356.6 	"/>
	<polygon id="XMLID_1992_" class="st5" points="348.7,293.5 342,302.1 360.6,349.9 383.8,338.7 	"/>
	<polygon id="XMLID_1991_" class="st8" points="314,152.1 342,189.1 278.8,226.6 268,173.4 	"/>
	<polygon id="XMLID_1990_" class="st5" points="361.9,139.8 346.1,142.3 324.6,150.6 314,152.1 342,189.1 	"/>
	<polygon id="XMLID_1989_" class="st4" points="324.6,232.5 342,189.1 278.8,226.6 	"/>
	<polygon id="XMLID_1988_" class="st3" points="294.6,269.6 324.6,232.5 278.8,226.6 	"/>
	<polygon id="XMLID_1987_" class="st1" points="342,302.1 348.7,293.5 324.6,232.5 294.6,269.6 	"/>
	<polygon id="XMLID_1986_" class="st11" points="319.8,308 342,302.1 294.6,269.6 	"/>
	<polygon id="XMLID_1985_" class="st7" points="360.6,349.9 327.9,305.8 342,302.1 	"/>
	<polygon id="XMLID_1984_" class="st10" points="374,394.8 320.1,399.5 337.5,367.1 360.6,349.9 	"/>
	<polygon id="XMLID_1983_" class="st9" points="319.8,308 296.9,318 337.5,367.1 360.6,349.9 327.9,305.8 	"/>
	<polygon id="XMLID_1982_" class="st11" points="320.1,399.5 296.9,393.9 296.9,318 337.5,367.1 	"/>
	<polygon id="XMLID_1981_" class="st1" points="284.3,433.6 296.9,393.9 265.3,385.2 245.2,430.4 	"/>
	<polygon id="XMLID_1980_" class="st3" points="296.9,318 258.1,338.7 265.3,385.2 296.9,393.9 	"/>
	<polygon id="XMLID_1979_" class="st2" points="294.6,269.6 245.2,284.1 296.9,318 319.8,308 	"/>
	<polygon id="XMLID_1978_" class="st1" points="278.8,226.6 241.7,235.4 245.2,284.1 294.6,269.6 	"/>
	<polygon id="XMLID_1977_" class="st5" points="268,173.4 241.7,235.4 278.8,226.6 	"/>
	<polygon id="XMLID_1976_" class="st5" points="303.3,73.9 289.5,82.2 286.1,102 305.5,80.5 	"/>
	<polygon id="XMLID_1975_" class="st4" points="256.5,100.9 289.5,82.2 286.1,102 	"/>
	<polygon id="XMLID_1974_" class="st1" points="268,173.4 256.5,100.9 286.1,102 268,123.5 268,125.7 275.8,133.9 284.6,143.5 
		292.5,146.3 300.2,154.1 314,152.1 	"/>
	<polygon id="XMLID_1973_" class="st8" points="253.6,129.2 241.7,131.2 251.4,136.8 	"/>
	<polygon id="XMLID_1972_" class="st4" points="256.5,100.9 227.5,118.6 253.6,129.2 251.4,136.8 250.4,143.5 234.2,158 
		204.9,160.5 268,173.4 	"/>
	<polygon id="XMLID_1971_" class="st5" points="241.7,131.2 233.9,127 239.6,123.5 253.6,129.2 	"/>
	<polygon id="XMLID_1970_" class="st11" points="250.4,143.5 241.7,143.5 247.6,134.6 251.4,136.8 	"/>
	<polygon id="XMLID_1969_" class="st2" points="234.2,158 234.2,149.5 250.4,143.5 	"/>
	<polygon id="XMLID_1968_" class="st0" points="241.7,143.5 224.6,144.9 234.2,149.5 250.4,143.5 	"/>
	<polygon id="XMLID_1967_" class="st2" points="241.7,131.2 228.8,134.6 224.6,144.9 241.7,143.5 247.6,134.6 	"/>
	<polygon id="XMLID_1966_" class="st3" points="233.9,127 228.8,134.6 241.7,131.2 	"/>
	<polygon id="XMLID_1965_" class="st1" points="227.5,118.6 233.9,127 239.6,123.5 	"/>
	<polygon id="XMLID_1964_" class="st5" points="228.8,134.6 214.2,127 233.9,127 	"/>
	<polygon id="XMLID_1963_" class="st3" points="224.6,144.9 200.7,139.8 214.2,127 228.8,134.6 	"/>
	<polygon id="XMLID_1962_" class="st4" points="233.9,127 214.2,127 220.7,116.4 227.5,118.6 	"/>
	<polygon id="XMLID_1961_" class="st11" points="224.6,144.9 208.7,149.5 204.9,160.5 234.2,158 234.2,149.5 	"/>
	<polygon id="XMLID_1960_" class="st1" points="200.7,139.8 208.7,149.5 224.6,144.9 	"/>
	<polygon id="XMLID_1959_" class="st2" points="220.7,116.4 212.6,105.6 204.9,108.9 203.3,118.6 	"/>
	<polygon id="XMLID_1958_" class="st1" points="200.7,139.8 200.7,122.5 203.3,118.6 220.7,116.4 214.2,127 	"/>
	<polygon id="XMLID_1957_" class="st3" points="204.9,108.9 203.3,97.8 210.7,100.9 212.6,105.6 	"/>
	<polygon id="XMLID_1956_" class="st0" points="203.3,118.6 200.7,114.9 193.9,116.4 191.6,121.7 195.2,123.5 200.7,122.5 	"/>
	<polygon id="XMLID_1955_" class="st11" points="204.9,108.9 200.7,114.9 203.3,118.6 	"/>
	<polygon id="XMLID_1954_" class="st2" points="203.3,97.8 188.5,107 204.9,108.9 	"/>
	<polygon id="XMLID_1953_" class="st11" points="193.9,116.4 188.5,107 204.9,108.9 200.7,114.9 	"/>
	<polygon id="XMLID_1952_" class="st5" points="195.2,123.5 190,136 200.7,139.8 200.7,122.5 	"/>
	<polygon id="XMLID_1951_" class="st1" points="182.2,146.5 190,136 200.7,139.8 	"/>
	<polygon id="XMLID_1950_" class="st3" points="208.7,149.5 177.5,155.8 182.2,146.5 200.7,139.8 	"/>
	<polygon id="XMLID_1949_" class="st9" points="204.9,160.5 177.5,155.8 208.7,149.5 	"/>
	<polygon id="XMLID_1948_" class="st1" points="182.2,146.5 170,137.2 191.6,121.7 195.2,123.5 190,136 	"/>
	<polygon id="XMLID_1947_" class="st1" points="203.3,97.8 173.9,88.2 188.5,107 	"/>
	<polygon id="XMLID_1946_" class="st3" points="193.9,116.4 168.9,121.1 170,137.2 191.6,121.7 	"/>
	<polygon id="XMLID_1945_" class="st4" points="173.9,88.2 160.7,96.4 188.5,107 	"/>
	<polygon id="XMLID_1944_" class="st5" points="193.9,116.4 188.5,107 171.3,100.5 168.9,121.1 	"/>
	<polygon id="XMLID_1943_" class="st2" points="177.5,155.8 155.8,143.5 170,137.2 182.2,146.5 	"/>
	<polygon id="XMLID_1942_" class="st3" points="168.9,121.1 161.3,105.6 171.3,100.5 	"/>
	<polygon id="XMLID_1941_" class="st5" points="160.7,96.4 152.1,100.5 161.3,105.6 171.3,100.5 	"/>
	<polygon id="XMLID_1940_" class="st1" points="168.9,121.1 156.4,121.7 161.3,105.6 	"/>
	<polygon id="XMLID_1939_" class="st5" points="155.8,143.5 156.4,121.7 168.9,121.1 170,137.2 	"/>
	<polygon id="XMLID_1938_" class="st3" points="177.5,155.8 168,164.9 145.1,162.4 155.8,143.5 	"/>
	<path id="XMLID_1937_" class="st8" d="M152.1,100.5l-2.4-1.6l-11.5,5.6c0,0,2.6,10.9,2.6,11.3c0,0.4,15.6,5.9,15.6,5.9l4.9-16.1
		L152.1,100.5z"/>
	<polygon id="XMLID_1936_" class="st8" points="146.2,109.5 150.9,105.6 156.4,110.3 149.7,114.5 	"/>
	<polygon id="XMLID_1935_" class="st2" points="149.5,119.2 149.7,114.5 156.4,110.3 161.3,105.6 156.4,121.7 	"/>
	<polygon id="XMLID_1934_" class="st3" points="146.2,109.5 138.8,107 140.7,115.8 149.5,119.2 149.7,114.5 	"/>
	<polygon id="XMLID_1933_" class="st4" points="156.4,110.3 161.3,105.6 149.6,98.9 138.2,104.4 138.8,107 146.2,109.5 150.9,105.6 
			"/>
	<polygon id="XMLID_1932_" class="st1" points="140.7,115.8 124.8,134.6 129,145.6 149.5,119.2 	"/>
	<polygon id="XMLID_1931_" class="st4" points="138.8,107 124.8,134.6 140.7,115.8 	"/>
	<polygon id="XMLID_1930_" class="st4" points="129,145.6 145.1,162.4 155.8,143.5 156.4,121.7 149.5,119.2 	"/>
	<polygon id="XMLID_1929_" class="st11" points="168,164.9 158.1,206 177.5,183.1 177.5,155.8 	"/>
	<polygon id="XMLID_1928_" class="st7" points="204.9,160.5 177.5,183.1 177.5,155.8 	"/>
	<polygon id="XMLID_1927_" class="st5" points="158.1,206 133.9,180.9 145.1,162.4 168,164.9 	"/>
	<polygon id="XMLID_1926_" class="st1" points="129,145.6 111.8,165.9 145.1,162.4 	"/>
	<polygon id="XMLID_1925_" class="st5" points="124.8,134.6 96.7,158 111.8,165.9 129,145.6 	"/>
	<polygon id="XMLID_1924_" class="st2" points="106.9,173.4 111.8,165.9 145.1,162.4 133.9,180.9 126,189.4 	"/>
	<polygon id="XMLID_1923_" class="st3" points="158.1,206 131,218.5 126,189.4 133.9,180.9 	"/>
	<polygon id="XMLID_1922_" class="st5" points="140.2,254.5 131,218.5 158.1,206 	"/>
	<polygon id="XMLID_1921_" class="st4" points="177.5,183.1 174.8,230.9 174.8,236.9 163.1,242.8 158.1,206 	"/>
	<polygon id="XMLID_1920_" class="st1" points="140.2,254.5 163.1,242.8 158.1,206 	"/>
	<polygon id="XMLID_1919_" class="st1" points="174.8,230.9 241.7,235.4 268,173.4 204.9,160.5 177.5,183.1 	"/>
	<polygon id="XMLID_1918_" class="st2" points="174.8,236.9 174.8,230.9 241.7,235.4 245.2,284.1 184.1,284.1 181.2,290 
		170.9,292.5 171.7,270.6 	"/>
	<polygon id="XMLID_1917_" class="st4" points="163.1,242.8 162.1,295.8 171.7,271.5 174.8,236.9 	"/>
	<polygon id="XMLID_1916_" class="st7" points="170.9,292.5 162.1,295.8 171.7,271.5 	"/>
	<polygon id="XMLID_1915_" class="st4" points="181.2,290 171.7,310.5 245.2,284.1 184.1,284.1 	"/>
	<polygon id="XMLID_1914_" class="st3" points="162.1,295.8 140.2,254.5 163.1,242.8 	"/>
	<polygon id="XMLID_1913_" class="st11" points="170.9,292.5 162.1,295.8 146.6,302.9 138.5,307.6 117.8,316.9 171.7,310.5 
		181.2,290 	"/>
	<polygon id="XMLID_1912_" class="st10" points="140.2,254.5 146.6,302.9 162.1,295.8 	"/>
	<polygon id="XMLID_1911_" class="st9" points="131,218.5 117.5,268.2 140.2,254.5 	"/>
	<polygon id="XMLID_1910_" class="st11" points="142.1,268.7 128.8,288.1 117.5,268.2 140.2,254.5 	"/>
	<polygon id="XMLID_1909_" class="st5" points="146.6,302.9 136.5,308.5 143.6,280.2 	"/>
	<polygon id="XMLID_1908_" class="st7" points="142.1,268.7 128.8,288.1 118.5,302.9 136.5,308.5 143.6,280.2 	"/>
	<polygon id="XMLID_1907_" class="st7" points="117.8,316.9 112.1,319.4 101.4,319.4 118.5,302.9 136.5,308.5 	"/>
	<polygon id="XMLID_1906_" class="st4" points="96.7,158 57.4,184.2 64,185.1 106.9,173.4 111.8,165.9 	"/>
	<polygon id="XMLID_1905_" class="st3" points="126,189.4 106.9,173.4 64,185.1 53.9,236.9 	"/>
	<polygon id="XMLID_1904_" class="st1" points="131,218.5 126,189.4 53.9,236.9 94.3,242.8 	"/>
	<polygon id="XMLID_1903_" class="st3" points="117.5,268.2 89.4,278.7 94.3,242.8 131,218.5 	"/>
	<polygon id="XMLID_1902_" class="st2" points="101.4,319.4 81.6,315.1 89.4,278.7 117.5,268.2 128.8,288.1 118.5,302.9 	"/>
	<polygon id="XMLID_1901_" class="st1" points="112.1,319.4 101.4,319.4 95.3,359.4 171.7,310.5 118.9,316.9 	"/>
	<polygon id="XMLID_1900_" class="st4" points="169.7,337.6 171.7,310.5 95.3,359.4 	"/>
	<polygon id="XMLID_1899_" class="st9" points="89.4,278.7 69.2,302.9 81.6,315.1 	"/>
	<polygon id="XMLID_1898_" class="st2" points="53.9,236.9 50.1,268.2 89.4,278.7 94.3,242.8 	"/>
	<polygon id="XMLID_1897_" class="st5" points="57.4,184.2 64,185.1 53.9,236.9 13.1,230.3 42,192.5 	"/>
	<polygon id="XMLID_1896_" class="st1" points="50.1,268.2 53.9,236.9 13.1,230.3 5.7,280.2 	"/>
	<polygon id="XMLID_1895_" class="st1" points="69.2,302.9 53.9,302.9 40,313.6 50.1,268.2 89.4,278.7 	"/>
	<polygon id="XMLID_1894_" class="st11" points="81.6,315.1 40,313.6 53.9,302.9 69.2,302.9 	"/>
	<polygon id="XMLID_1893_" class="st2" points="50.1,268.2 5.7,280.2 3.9,305.7 40,313.6 	"/>
	<polygon id="XMLID_1892_" class="st7" points="1.7,323 40,313.6 3.9,305.7 	"/>
	<polygon id="XMLID_1891_" class="st1" points="0,357.4 1.7,323 40,313.6 	"/>
	<polygon id="XMLID_1890_" class="st3" points="81.6,315.1 40,313.6 51.1,361.8 95.3,359.4 101.4,319.4 	"/>
	<polygon id="XMLID_1889_" class="st3" points="0,357.4 18.4,387.5 51.1,361.8 40,313.6 	"/>
	<polygon id="XMLID_1888_" class="st9" points="95.3,359.4 51.1,361.8 69,422.5 97.3,395.8 	"/>
	<polygon id="XMLID_1887_" class="st2" points="18.4,387.5 51.1,361.8 69,422.5 45.3,441.8 	"/>
	<polygon id="XMLID_1886_" class="st10" points="97.3,395.8 136.6,434.9 69,422.5 	"/>
	<polygon id="XMLID_1885_" class="st6" points="45.3,441.8 69,422.5 136.6,434.9 	"/>
	<polygon id="XMLID_1884_" class="st1" points="95.3,359.4 158.7,404 97.3,395.8 	"/>
	<polygon id="XMLID_1883_" class="st7" points="136.6,434.9 97.3,395.8 158.7,404 177.3,434.9 	"/>
	<polygon id="XMLID_1882_" class="st3" points="169.7,337.6 95.3,359.4 158.7,404 	"/>
	<polygon id="XMLID_1881_" class="st11" points="177.3,434.9 158.7,404 245.2,430.4 284.3,433.6 	"/>
	<polygon id="XMLID_1880_" class="st9" points="265.3,385.2 215.8,381.1 158.7,404 245.2,430.4 	"/>
	<polygon id="XMLID_1879_" class="st2" points="258.1,338.7 218.7,355.9 215.8,381.1 265.3,385.2 	"/>
	<polygon id="XMLID_1878_" class="st5" points="169.7,337.6 218.7,355.9 158.7,404 	"/>
	<polygon id="XMLID_1877_" class="st1" points="215.8,381.1 218.7,355.9 158.7,404 	"/>
	<polygon id="XMLID_1872_" class="st5" points="245.2,284.1 169.7,337.6 171.7,310.5 	"/>
	<polygon id="XMLID_1871_" class="st4" points="218.7,355.9 208,310.4 169.7,337.6 	"/>
	<polygon id="XMLID_1870_" class="st1" points="245.2,284.1 208,310.4 218.7,355.9 	"/>
	<polygon id="XMLID_1869_" class="st1" points="283.1,120.1 292.5,102 299,108.9 289.5,124.4 	"/>
	<polygon id="XMLID_1868_" class="st2" points="336.9,72.3 332.6,56.4 319.2,67.3 	"/>
	<polygon id="XMLID_1867_" class="st1" points="343.1,102 347.2,120.1 309.1,102 	"/>
	<polygon id="XMLID_1866_" class="st5" points="329.1,39.8 319.2,67.3 299,60.7 	"/>
	<polygon id="XMLID_1865_" class="st1" points="304.1,39.8 296.8,27.3 296.8,40.9 307.9,49.6 	"/>
	<polygon id="XMLID_1864_" class="st5" points="369.6,89.1 365.3,67.3 403.6,44.8 	"/>
	<polygon id="XMLID_1863_" class="st1" points="418.7,166.6 405.3,196.5 418.7,196.5 	"/>
	<polygon id="XMLID_1862_" class="st3" points="314,152.1 342,189.1 278.8,226.6 268,173.4 	"/>
	<polygon id="XMLID_1861_" class="st6" points="253.6,129.2 241.7,131.2 247.6,134.6 251.4,136.8 	"/>
	<polygon id="XMLID_1860_" class="st6" points="150.9,105.6 146.2,109.5 149.7,114.5 156.4,110.3 	"/>
	<g id="XMLID_1857_">
		<path id="XMLID_11_" class="st8" d="M339.7,75.9"/>
	</g>
	<g id="XMLID_1837_">
		<path id="XMLID_9_" class="st8" d="M199.3,117.9"/>
	</g>
	<polygon id="XMLID_1836_" class="st4" points="245.2,284.1 218.7,355.9 258.1,338.7 296.9,318 	"/>
	<circle id="XMLID_1832_" class="st12" cx="199.5" cy="118" r="1.1"/>
	<circle id="XMLID_381_" class="st12" cx="339.5" cy="75.4" r="2.6"/>
</g>
</svg>
