<?xml version="1.0" encoding="utf-8"?>
<!-- Generator: Adobe Illustrator 19.0.0, SVG Export Plug-In . SVG Version: 6.00 Build 0)  -->
<svg version="1.1" id="Layer_1" xmlns="http://www.w3.org/2000/svg" xmlns:xlink="http://www.w3.org/1999/xlink" x="0px" y="0px"
	 viewBox="0 0 422 412.1" style="enable-background:new 0 0 422 412.1;" xml:space="preserve">
<style type="text/css">
	.st0{fill:#477F8A;}
	.st1{fill:#447A84;}
	.st2{fill:#5497A4;}
	.st3{fill:none;}
	.st4{fill:#85DFEB;}
	.st5{fill:#5CD4E5;}
	.st6{fill:#A8DDE7;}
	.st7{fill:#2F545C;}
	.st8{fill:#B1F6FF;}
	.st9{fill:#D8FAFF;}
	.st10{fill:#5AA2B0;}
	.st11{fill:#7FCAD4;}
	.st12{fill:#AADBE2;}
	.st13{fill:#89F1FF;}
	.st14{fill:#56BDCB;}
	.st15{fill:#2AA6B7;}
	.st16{fill:#33CADE;}
	.st17{fill:#55B8C5;}
	.st18{fill:#2CACBE;}
	.st19{fill:#2697A7;}
	.st20{fill:#2D5158;}
	.st21{fill:#5D8F0E;}
	.st22{fill:#21818E;}
	.st23{fill:#38656D;}
	.st24{fill:#486022;}
	.st25{fill:#CBE5A1;}
	.st26{fill:#B0D971;}
	.st27{fill:#3E600A;}
	.st28{fill:#A5CC69;}
	.st29{fill:#7CBF13;}
	.st30{fill:#8FBF43;}
	.st31{fill:#96CC42;}
	.st32{fill:#7BDDF0;}
	.st33{fill:#6B8F32;}
</style>
<g id="XMLID_784_">
	<polygon id="XMLID_865_" class="st0" points="314.2,243.3 309.1,160.8 382.7,173.1 	"/>
	<polygon id="XMLID_864_" class="st1" points="342.7,303.6 314.2,243.3 372,230.1 	"/>
	<polygon id="XMLID_863_" class="st2" points="382.7,173.1 314.2,243.3 372,230.1 	"/>
	<path id="XMLID_862_" class="st3" d="M87.1,289.7"/>
	<polygon id="XMLID_861_" class="st3" points="164.1,412 79.5,371.4 20.9,298.1 0,206.5 20.9,115 79.5,41.2 164.1,0 258,0 
		342.6,41.2 401.1,114.8 422,206.5 401.1,298.1 342.6,371.4 258,412 	"/>
	<polygon id="XMLID_860_" class="st4" points="20.9,298.1 63.2,303.6 79.5,371.5 	"/>
	<polygon id="XMLID_859_" class="st5" points="164.1,412.1 145.8,361.4 79.5,371.5 	"/>
	<polygon id="XMLID_858_" class="st6" points="258,412 211,393.4 164.1,412 	"/>
	<polygon id="XMLID_857_" class="st0" points="342.6,371.5 258,412.1 275.4,361.4 	"/>
	<polygon id="XMLID_856_" class="st7" points="400.6,298 342,303.6 342,371.3 	"/>
	<polygon id="XMLID_855_" class="st8" points="0,206.5 35.2,243.3 20.9,298.1 	"/>
	<polygon id="XMLID_854_" class="st9" points="20.9,115 50.2,150.8 0,206.5 	"/>
	<polygon id="XMLID_853_" class="st10" points="258,2 220.1,35.4 164.1,2 	"/>
	<polygon id="XMLID_839_" class="st1" points="342.6,41.7 272.9,49.3 258,1 	"/>
	<polygon id="XMLID_838_" class="st11" points="220.1,34.4 155.7,49.3 164.1,1 	"/>
	<polygon id="XMLID_837_" class="st0" points="272.9,49.3 220.1,34.4 258,1 	"/>
	<polygon id="XMLID_836_" class="st12" points="35.2,243.3 50,151.3 0,206.5 	"/>
	<polygon id="XMLID_835_" class="st13" points="63.2,303.6 20.9,298.1 35.2,243.3 	"/>
	<polygon id="XMLID_834_" class="st11" points="50,151.3 109.5,215.2 35.2,243.3 	"/>
	<polygon id="XMLID_833_" class="st14" points="63.2,303.6 109.5,215.2 35.2,243.3 	"/>
	<polygon id="XMLID_832_" class="st11" points="145.8,361.4 63.2,303.6 79.5,371.5 	"/>
	<polygon id="XMLID_831_" class="st14" points="211,393.6 164.1,412.1 145.8,361.4 	"/>
	<polygon id="XMLID_830_" class="st15" points="63.2,303.6 150.8,279.6 145.8,361.4 	"/>
	<polygon id="XMLID_829_" class="st16" points="211,393.6 211,328.3 146.2,361.4 	"/>
	<polygon id="XMLID_828_" class="st17" points="275.4,361.4 210.6,393.6 258,412.1 	"/>
	<polygon id="XMLID_827_" class="st18" points="211,328.3 275.8,361.4 211,393.6 	"/>
	<polygon id="XMLID_826_" class="st1" points="342,303.6 342,371.3 274.7,361.4 	"/>
	<polygon id="XMLID_825_" class="st19" points="210.6,328.3 150.8,279.6 145.8,361.4 	"/>
	<polygon id="XMLID_824_" class="st18" points="109.5,215.2 150.8,279.6 63.2,303.6 	"/>
	<polygon id="XMLID_823_" class="st15" points="146.6,151 109.5,215 50,151 	"/>
	<polygon id="XMLID_822_" class="st20" points="334,95.5 342.6,41.7 272.9,49.3 	"/>
	<polygon id="XMLID_821_" class="st2" points="202.8,96.4 272.9,49.3 334,95.5 	"/>
	<polygon id="XMLID_820_" class="st21" points="372,230.1 422,206.6 382.7,173.1 	"/>
	<polygon id="XMLID_819_" class="st2" points="342.7,303.6 372,230.1 401.2,298 	"/>
	<polygon id="XMLID_818_" class="st2" points="275.4,361.4 279.1,298 342.7,303.6 	"/>
	<polygon id="XMLID_817_" class="st0" points="279.1,298 314.2,243.3 342.7,303.6 	"/>
	<polygon id="XMLID_816_" class="st2" points="334,95.5 309.1,160.8 382.7,173.1 	"/>
	<polygon id="XMLID_815_" class="st10" points="202.8,96.4 231.7,150.8 268,95.9 	"/>
	<path id="XMLID_814_" class="st3" d="M309.1,160.8"/>
	<polygon id="XMLID_813_" class="st22" points="231.7,150.8 268,95.9 309.1,160.8 	"/>
	<polygon id="XMLID_812_" class="st1" points="309.1,160.8 231.7,150.8 258,202 	"/>
	<polygon id="XMLID_811_" class="st23" points="314.2,243.3 258,202 309.1,160.8 	"/>
	<polygon id="XMLID_810_" class="st2" points="231.7,150.8 178,215.6 258,202 	"/>
	<polygon id="XMLID_809_" class="st24" points="422,206.6 372,230.1 401.2,298 	"/>
	<polygon id="XMLID_808_" class="st25" points="79.5,41.7 97.9,96.4 20.9,115 	"/>
	<polygon id="XMLID_807_" class="st26" points="164.1,1 155.7,49.3 79.5,41.7 	"/>
	<polygon id="XMLID_806_" class="st27" points="401.1,115.1 334,95.5 342.6,41.7 	"/>
	<polygon id="XMLID_805_" class="st27" points="422,206.6 382.7,173.1 401.1,115.1 	"/>
	<polygon id="XMLID_804_" class="st26" points="20.9,115 50.2,150.8 97.9,96.4 	"/>
	<polygon id="XMLID_803_" class="st28" points="155.7,49.3 97.9,96.4 79.5,41.7 	"/>
	<polygon id="XMLID_802_" class="st29" points="155.7,49.3 146.6,151.3 97.8,96.8 	"/>
	<polygon id="XMLID_801_" class="st21" points="220.1,34.4 155.7,49.3 202.8,96.4 	"/>
	<polygon id="XMLID_800_" class="st30" points="146.6,151.3 202.8,96.4 155.7,49.3 	"/>
	<polygon id="XMLID_799_" class="st31" points="220.1,34.4 202.8,96.4 272.9,49.3 	"/>
	<polygon id="XMLID_798_" class="st7" points="401.1,115.1 334,95.5 382.7,173.1 	"/>
	<polygon id="XMLID_797_" class="st28" points="210.6,328.3 279.1,298 275.4,361.4 	"/>
	<polygon id="XMLID_796_" class="st21" points="146.6,151.3 231.7,150.8 202.8,96.4 	"/>
	<polygon id="XMLID_795_" class="st21" points="314.2,243.3 279.1,298 225.1,255.7 	"/>
	<polygon id="XMLID_794_" class="st29" points="210.6,328.3 225.1,255.7 279.1,298 	"/>
	<polygon id="XMLID_793_" class="st31" points="150.8,279.6 225.1,255.7 210.6,328.3 	"/>
	<polygon id="XMLID_792_" class="st32" points="109.5,216 178,216 150.8,280 	"/>
	<polygon id="XMLID_791_" class="st29" points="225.1,255.7 178,215.6 150.8,279.6 	"/>
	<polygon id="XMLID_790_" class="st29" points="231.7,150.8 146.6,151.3 178,215.6 	"/>
	<polygon id="XMLID_789_" class="st31" points="225.1,255.7 258,202 314.2,243.3 	"/>
	<polygon id="XMLID_788_" class="st33" points="178,215.6 258,202 225.1,255.7 	"/>
	<polygon id="XMLID_787_" class="st31" points="50,151 145,151 146.6,150.9 97.8,96.6 50.2,150.4 	"/>
	<polygon id="XMLID_786_" class="st17" points="109,216 178,216 178.1,216 146.5,151.2 109,215.2 	"/>
	<polygon id="XMLID_785_" class="st1" points="334,95.5 268,95.9 309.1,160.8 	"/>
</g>
</svg>
