<?xml version="1.0" encoding="utf-8"?>
<!-- Generator: Adobe Illustrator 19.0.0, SVG Export Plug-In . SVG Version: 6.00 Build 0)  -->
<svg version="1.1" id="Layer_1" xmlns="http://www.w3.org/2000/svg" xmlns:xlink="http://www.w3.org/1999/xlink" x="0px" y="0px"
	 viewBox="0 0 186.4 149.1" style="enable-background:new 0 0 186.4 149.1;" xml:space="preserve">
<style type="text/css">
	.st0{fill:#F37C4B;}
	.st1{fill:#F69971;}
	.st2{fill:#00A490;}
	.st3{fill:#F27247;}
	.st4{fill:#F05A28;}
	.st5{fill:#F58B66;}
	.st6{fill:#ADD2CA;}
	.st7{fill:#5BB2A2;}
	.st8{fill:#3EB989;}
	.st9{fill:#6FC49C;}
	.st10{fill:#93D0B2;}
	.st11{fill:#023D34;}
	.st12{fill:#8AD1CD;}
	.st13{fill:#D4E6E1;}
	.st14{fill:#509185;}
	.st15{fill:#018976;}
	.st16{fill:#539989;}
	.st17{fill:#4EBFB0;}
	.st18{fill:#6BC7C2;}
	.st19{fill:#86C1B5;}
	.st20{fill:#DFF1EF;}
	.st21{fill:none;}
	.st22{fill:#D8EDE2;}
	.st23{fill:#78CABD;}
	.st24{fill:#231F20;}
</style>
<g id="fish">
	<polygon id="XMLID_1231_" class="st0" points="0,20.2 10.3,17.6 2.7,30.2 	"/>
	<polygon id="XMLID_1230_" class="st1" points="10.3,17.6 18.9,15.6 16.8,23.7 2.7,30.2 	"/>
	<polygon id="XMLID_1229_" class="st0" points="18.9,15.6 30.1,13.5 34.3,21.8 29,23.3 24.3,20.5 16.8,23.7 	"/>
	<polygon id="XMLID_1228_" class="st1" points="2.7,30.2 5.6,37.9 15.1,40.6 18.2,30.9 16.8,23.7 	"/>
	<polygon id="XMLID_1227_" class="st2" points="29,23.3 29.5,31.3 22.8,33.6 18.2,30.9 16.8,23.7 24.3,20.5 	"/>
	<polygon id="XMLID_1226_" class="st1" points="34.3,21.8 29.5,31.3 29,23.3 	"/>
	<polygon id="XMLID_1225_" class="st0" points="15.1,40.6 22.8,33.6 18.2,30.9 	"/>
	<polygon id="XMLID_1224_" class="st3" points="5.6,37.9 8.5,47.1 15.1,40.6 	"/>
	<polygon id="XMLID_1223_" class="st1" points="29.5,31.3 28,40.9 15.1,40.6 22.8,33.6 	"/>
	<polygon id="XMLID_1222_" class="st4" points="8.5,47.1 14.2,55.4 15.1,40.6 	"/>
	<polygon id="XMLID_1221_" class="st3" points="28,40.9 14.2,55.4 15.1,40.6 	"/>
	<polygon id="XMLID_1220_" class="st5" points="30.1,13.5 54.2,17.7 42,38.1 34.3,21.8 	"/>
	<polygon id="XMLID_1219_" class="st4" points="14.2,55.4 20.7,64 28,40.9 	"/>
	<polygon id="XMLID_1218_" class="st0" points="29.5,31.3 28,40.9 20.7,64 42,38.1 34.3,21.8 	"/>
	<polygon id="XMLID_1217_" class="st4" points="23.9,68.4 20.7,64 42,38.1 	"/>
	<polygon id="XMLID_1216_" class="st6" points="54.2,17.7 76.4,25.3 61.4,34.8 	"/>
	<polygon id="XMLID_1215_" class="st7" points="42,38.1 36.1,48 50.1,43.6 54.2,17.7 	"/>
	<polygon id="XMLID_1214_" class="st8" points="23.9,68.4 39.9,60.7 36.1,48 	"/>
	<polygon id="XMLID_1213_" class="st9" points="50.1,43.6 39.9,60.7 36.1,48 	"/>
	<polygon id="XMLID_1212_" class="st9" points="54.2,17.7 61.4,34.8 50.1,43.6 	"/>
	<polygon id="XMLID_1211_" class="st7" points="23.9,68.4 32,79.8 46,88.2 39.9,60.7 	"/>
	<polygon id="XMLID_1210_" class="st4" points="50.1,43.6 68.8,67.6 39.9,60.7 	"/>
	<polygon id="XMLID_1209_" class="st10" points="76.4,25.3 61.4,34.8 50.1,43.6 80.9,52.7 	"/>
	<polygon id="XMLID_1208_" class="st11" points="32,79.8 40.4,108.8 46,88.2 	"/>
	<polygon id="XMLID_1207_" class="st7" points="76.4,25.3 96.3,46.5 78.5,38 	"/>
	<polygon id="XMLID_1206_" class="st12" points="80.9,52.7 96.3,46.5 78.5,38 	"/>
	<polygon id="XMLID_1205_" class="st13" points="76.4,25.3 89.8,30.1 104.4,43 96.3,46.5 	"/>
	<polygon id="XMLID_1204_" class="st2" points="80.9,52.7 91.9,72.5 68.8,67.6 50.1,43.6 	"/>
	<polygon id="XMLID_1203_" class="st2" points="39.9,60.7 55.8,64.5 46,88.2 	"/>
	<polygon id="XMLID_1202_" class="st8" points="68.8,67.6 91.9,72.5 75.5,84.4 59.9,80.2 55.8,64.5 	"/>
	<polygon id="XMLID_1201_" class="st14" points="46,88.2 59.9,80.2 55.8,64.5 	"/>
	<polygon id="XMLID_1200_" class="st15" points="40.4,108.8 51.9,103.7 46,88.2 	"/>
	<polygon id="XMLID_1199_" class="st15" points="32,79.8 25.2,99.7 40.4,108.8 	"/>
	<polygon id="XMLID_1198_" class="st16" points="51.9,103.7 65.5,108.2 40.4,108.8 	"/>
	<polygon id="XMLID_1197_" class="st15" points="67.3,98.1 65.5,108.2 51.9,103.7 	"/>
	<polygon id="XMLID_1196_" class="st11" points="46,88.2 67.3,98.1 51.9,103.7 	"/>
	<polygon id="XMLID_1195_" class="st16" points="25.2,99.7 40.4,108.8 29.8,109.2 	"/>
	<polygon id="XMLID_1194_" class="st2" points="67.3,98.1 59.9,80.2 46,88.2 	"/>
	<polygon id="XMLID_1193_" class="st17" points="25.2,99.7 21.8,109.8 29.8,109.2 	"/>
	<polygon id="XMLID_1192_" class="st7" points="59.9,80.2 67.3,98.1 75.5,84.4 	"/>
	<polygon id="XMLID_1191_" class="st18" points="80.9,52.7 96.3,46.5 104.4,43 91.9,72.5 	"/>
	<polygon id="XMLID_1190_" class="st8" points="75.5,84.4 84.3,102 67.3,98.1 	"/>
	<polygon id="XMLID_1189_" class="st2" points="91.9,72.5 84.3,102 75.5,84.4 	"/>
	<polygon id="XMLID_1188_" class="st7" points="104.4,43 109.6,73 91.9,72.5 	"/>
	<polygon id="XMLID_1187_" class="st7" points="84.3,102 97.4,96.1 91.9,72.5 	"/>
	<polygon id="XMLID_1186_" class="st13" points="104.4,43 117.3,55.4 120.2,60.7 106.8,57 	"/>
	<polygon id="XMLID_1185_" class="st19" points="109.6,73 120.2,60.7 106.8,57 	"/>
	<polygon id="XMLID_1184_" class="st2" points="91.9,72.5 102,83.3 97.4,96.1 	"/>
	<polygon id="XMLID_1183_" class="st13" points="120.2,60.7 127.9,75.6 109.6,73 	"/>
	<polygon id="XMLID_1182_" class="st9" points="102,83.3 91.9,72.5 109.6,73 127.9,75.6 	"/>
	<polygon id="XMLID_1181_" class="st14" points="97.4,96.1 84.3,102 99.5,106.4 	"/>
	<polygon id="XMLID_1180_" class="st7" points="102,83.3 109.1,93 99.5,106.4 97.4,96.1 	"/>
	<polygon id="XMLID_1179_" class="st20" points="127.9,75.6 132.6,85.2 122.5,95.6 123.1,77 	"/>
	<polygon id="XMLID_1178_" class="st2" points="102,83.3 109.1,93 123.1,77 	"/>
	<polygon id="XMLID_1177_" class="st19" points="122.5,95.6 109.1,93 123.1,77 	"/>
	<polygon id="XMLID_1176_" class="st13" points="132.6,85.2 137.7,95.3 122.5,95.6 	"/>
	<polygon id="XMLID_1175_" class="st9" points="109.1,93 122.5,95.6 137.7,95.3 129.8,108.7 	"/>
	<polygon id="XMLID_1174_" class="st14" points="99.5,106.4 129.8,108.7 109.1,93 	"/>
	<polygon id="XMLID_1173_" class="st15" points="84.3,102 81.1,113 88.1,108.8 	"/>
	<polygon id="XMLID_1172_" class="st17" points="108.2,107.1 108.3,118.1 99.2,117.1 	"/>
	<polygon id="XMLID_1171_" class="st11" points="84.3,102 95.2,105.5 88.1,108.8 	"/>
	<polygon id="XMLID_1170_" class="st16" points="81.1,113 99.2,117.1 95.2,105.5 88.1,108.8 	"/>
	<polygon id="XMLID_1169_" class="st11" points="108.2,107.1 99.5,106.4 95.2,105.5 99.2,117.1 	"/>
	<path id="XMLID_1168_" class="st21" d="M88.4,1.2"/>
	<polygon id="XMLID_1167_" class="st8" points="60.7,19.9 70.8,12.3 83.5,27.9 76.4,25.3 	"/>
	<polygon id="XMLID_1166_" class="st13" points="117.3,55.4 127.5,48.4 120.9,40.9 115.2,53.4 	"/>
	<polygon id="XMLID_1165_" class="st2" points="70.8,12.3 86.3,0 83.5,27.9 	"/>
	<polygon id="XMLID_1164_" class="st7" points="120.9,40.9 95.9,35.5 104.4,43 115.2,53.4 	"/>
	<polygon id="XMLID_1163_" class="st6" points="86.3,0 98.9,14.9 83.5,27.9 	"/>
	<polygon id="XMLID_1162_" class="st7" points="95.9,35.5 89.8,30.1 83.5,27.9 98.9,14.9 	"/>
	<polygon id="XMLID_1161_" class="st22" points="120.9,40.9 106.1,24.1 95.9,35.5 	"/>
	<polygon id="XMLID_1160_" class="st6" points="98.9,14.9 106.1,24.1 95.9,35.5 	"/>
	<polygon id="XMLID_1159_" class="st4" points="137.7,95.3 148.6,112.6 129.8,108.7 	"/>
	<polygon id="XMLID_1158_" class="st0" points="137.7,95.3 154.8,95.9 148.6,112.6 	"/>
	<polygon id="XMLID_1157_" class="st0" points="129.8,108.7 136.8,126.5 148.6,112.6 	"/>
	<polygon id="XMLID_1156_" class="st23" points="154.8,95.9 169.8,98.1 148.6,112.6 	"/>
	<polygon id="XMLID_1155_" class="st16" points="136.8,126.5 148.6,112.6 159,126 	"/>
	<polygon id="XMLID_1154_" class="st15" points="169.8,98.1 167.5,116.7 148.6,112.6 	"/>
	<polygon id="XMLID_1153_" class="st11" points="136.8,126.5 144.5,138.9 159,126 	"/>
	<polygon id="XMLID_1152_" class="st17" points="169.8,98.1 186.4,108.1 167.5,116.7 	"/>
	<polygon id="XMLID_1151_" class="st15" points="144.5,138.9 161.9,149.1 159,126 	"/>
	<circle id="XMLID_1150_" class="st24" cx="23.5" cy="27" r="4.4"/>
</g>
</svg>
