<?xml version="1.0" encoding="utf-8"?>
<!-- Generator: Adobe Illustrator 19.0.0, SVG Export Plug-In . SVG Version: 6.00 Build 0)  -->
<svg version="1.1" id="Layer_1" xmlns="http://www.w3.org/2000/svg" xmlns:xlink="http://www.w3.org/1999/xlink" x="0px" y="0px"
	 viewBox="0 0 550.3 395.4" style="enable-background:new 0 0 550.3 395.4;" xml:space="preserve">
<style type="text/css">
	.st0{fill:#AF7E09;}
	.st1{fill:#7D5B24;}
	.st2{fill:#6A7E36;}
	.st3{fill:#9EBC2E;}
	.st4{fill:#B9D05E;}
	.st5{fill:#BF933B;}
	.st6{fill:#FDC14D;}
	.st7{fill:#CFAA66;}
	.st8{fill:#FCB315;}
	.st9{fill:#81A43C;}
	.st10{fill:#C3D82E;}
	.st11{fill:#748939;}
	.st12{fill:#A8C854;}
	.st13{fill:#899C4B;}
	.st14{fill:#BC9840;}
	.st15{fill:#8EB761;}
	.st16{fill:#F6921E;}
	.st17{fill:#F7C74F;}
	.st18{fill:#F4BC17;}
	.st19{fill:#74AA42;}
	.st20{fill:#F9A64A;}
	.st21{fill:#F5BB3A;}
	.st22{fill:#F05A28;}
	.st23{fill:#FAAF40;}
	.st24{fill:#EE4036;}
	.st25{fill:#845914;}
</style>
<g id="XMLID_118_">
	<g id="XMLID_306_">
		<polygon id="XMLID_738_" class="st0" points="222.9,190.6 209,190.6 223.5,208.6 		"/>
		<polygon id="XMLID_737_" class="st1" points="124.3,295.9 115.6,295.9 115.6,260.1 124.3,271.9 		"/>
		<polygon id="XMLID_736_" class="st2" points="119.4,7.5 119.4,80.5 91.9,61.6 		"/>
		<polygon id="XMLID_735_" class="st3" points="156.4,67.3 119.4,7.5 119.4,59.2 129.3,80.5 		"/>
		<polygon id="XMLID_734_" class="st0" points="119.4,80.5 129.3,80.5 119.4,59.2 		"/>
		<polygon id="XMLID_733_" class="st3" points="91.9,61.6 69.1,105.2 91.9,105.2 119.4,80.5 		"/>
		<polygon id="XMLID_732_" class="st4" points="156.4,67.3 182,105.2 156.4,108.5 129.3,85.8 129.3,80.5 		"/>
		<polygon id="XMLID_731_" class="st5" points="119.4,80.5 129.3,85.8 129.3,80.5 		"/>
		<polygon id="XMLID_730_" class="st1" points="129.3,118.5 129.3,85.8 119.4,80.5 119.4,111.8 		"/>
		<polygon id="XMLID_729_" class="st2" points="91.9,105.2 79.1,128.4 119.4,141.3 119.4,111.8 119.4,80.5 		"/>
		<polygon id="XMLID_728_" class="st0" points="129.3,118.5 119.4,111.8 119.4,141.3 129.3,129.9 		"/>
		<polygon id="XMLID_727_" class="st6" points="145.9,108.5 129.3,118.5 129.3,129.9 		"/>
		<polygon id="XMLID_726_" class="st3" points="156.4,108.5 129.3,85.8 129.3,118.5 145.9,108.5 129.3,129.9 129.3,136 166.3,121.8 
					"/>
		<polygon id="XMLID_479_" class="st4" points="119.4,141.3 99.2,153.1 83.3,162.1 79.1,128.4 		"/>
		<polygon id="XMLID_478_" class="st7" points="129.3,136 129.3,129.9 119.4,141.3 		"/>
		<polygon id="XMLID_477_" class="st3" points="99.2,153.1 119.4,168.3 119.4,141.3 		"/>
		<polygon id="XMLID_476_" class="st5" points="129.3,136 119.4,141.3 119.4,168.3 119.4,190.6 137.6,176.3 		"/>
		<polygon id="XMLID_475_" class="st8" points="99.2,153.1 119.4,190.6 119.4,168.3 		"/>
		<polygon id="XMLID_473_" class="st2" points="83.3,162.1 99.2,153.1 119.4,190.6 91.9,198.2 		"/>
		<polygon id="XMLID_434_" class="st9" points="79.1,128.4 38.3,190.6 83.3,162.1 		"/>
		<polygon id="XMLID_433_" class="st4" points="91.9,198.2 83.3,162.1 38.3,190.6 65.1,190.6 		"/>
		<polygon id="XMLID_432_" class="st10" points="166.3,121.8 129.3,136 137.6,176.3 152.6,168.3 		"/>
		<polygon id="XMLID_431_" class="st9" points="209,190.6 166.3,121.8 152.6,168.3 182,190.6 		"/>
		<polygon id="XMLID_430_" class="st2" points="137.6,176.3 152.6,168.3 155.7,208.6 137.9,202 		"/>
		<polygon id="XMLID_429_" class="st3" points="182,190.6 155.7,208.6 152.6,168.3 		"/>
		<polygon id="XMLID_428_" class="st0" points="137.9,202 119.4,190.6 137.6,176.3 		"/>
		<polygon id="XMLID_427_" class="st11" points="155.7,208.6 182,229.5 197.6,208.6 182,190.6 		"/>
		<polygon id="XMLID_426_" class="st7" points="137.9,202 119.4,190.6 142.6,248 		"/>
		<polygon id="XMLID_425_" class="st2" points="155.7,208.6 142.6,248 167.3,248 182,229.5 		"/>
		<polygon id="XMLID_424_" class="st12" points="137.9,202 155.7,208.6 142.6,248 		"/>
		<polygon id="XMLID_423_" class="st10" points="91.9,198.2 99.2,222.4 119.4,190.6 		"/>
		<polygon id="XMLID_396_" class="st3" points="65.1,190.6 91.9,198.2 49.6,212.4 		"/>
		<polygon id="XMLID_395_" class="st13" points="91.9,198.2 99.2,222.4 49.6,212.4 		"/>
		<polygon id="XMLID_394_" class="st10" points="115.6,248 69.1,248 49.6,212.4 99.2,222.4 		"/>
		<polygon id="XMLID_393_" class="st8" points="142.6,248 124.3,295.9 124.3,248 		"/>
		<polygon id="XMLID_392_" class="st2" points="69.1,248 22.1,248 49.6,212.4 		"/>
		<polygon id="XMLID_391_" class="st1" points="142.6,248 142.6,271.9 132.3,274.9 		"/>
		<polygon id="XMLID_390_" class="st5" points="124.3,295.9 142.6,295.9 142.6,271.9 132.3,274.9 		"/>
		<polygon id="XMLID_389_" class="st0" points="142.6,271.9 132.3,274.9 142.6,295.9 		"/>
		<polygon id="XMLID_388_" class="st14" points="115.6,248 115.6,260.1 124.3,271.9 124.3,248 		"/>
		<polygon id="XMLID_387_" class="st3" points="197.6,208.6 229.2,248 167.3,248 		"/>
		<polygon id="XMLID_386_" class="st15" points="69.1,105.2 58.5,87.9 49.6,96.5 53.4,111.8 		"/>
		<polygon id="XMLID_385_" class="st16" points="69.1,105.2 81.2,124.6 70.8,124.6 53.8,114.9 53.4,111.8 		"/>
		<polygon id="XMLID_384_" class="st16" points="58.5,87.9 49.6,71.7 49.6,96.5 		"/>
		<polygon id="XMLID_383_" class="st0" points="53.4,111.8 49.6,111.8 49.6,96.5 		"/>
		<polygon id="XMLID_379_" class="st17" points="49.6,71.7 36.4,99.9 49.6,96.5 		"/>
		<polygon id="XMLID_378_" class="st16" points="49.6,111.8 36.4,99.9 49.6,96.5 		"/>
		<polygon id="XMLID_377_" class="st1" points="53.8,114.9 53.4,111.8 49.6,111.8 51.5,145.3 55.7,141.3 		"/>
		<polygon id="XMLID_376_" class="st18" points="36.4,99.9 30,113.4 33.2,126.6 49.6,111.8 		"/>
		<polygon id="XMLID_375_" class="st19" points="51,135.6 33.2,126.6 49.6,111.8 		"/>
		<polygon id="XMLID_374_" class="st18" points="70.8,124.6 53.8,114.9 55.7,141.3 65.5,149.1 		"/>
		<polygon id="XMLID_373_" class="st16" points="30,113.4 24.3,126.6 33.2,126.6 		"/>
		<polygon id="XMLID_372_" class="st20" points="70.8,124.6 76.7,132 65.5,149.1 		"/>
		<polygon id="XMLID_371_" class="st16" points="55.7,141.3 57.7,161 65.5,149.1 		"/>
		<polygon id="XMLID_370_" class="st5" points="51.5,145.3 52.6,156.9 57.6,159.5 55.7,141.3 		"/>
		<polygon id="XMLID_369_" class="st18" points="51,135.6 33.2,126.6 43,153.1 52.6,156.9 51.5,145.3 		"/>
		<polygon id="XMLID_368_" class="st8" points="57.7,161 52.6,168.3 52.6,156.9 57.6,159.5 		"/>
		<polygon id="XMLID_367_" class="st1" points="43,153.1 52.6,156.9 52.6,168.3 		"/>
		<polygon id="XMLID_366_" class="st16" points="33.2,126.6 19.9,151.1 26.6,171.8 43,153.1 		"/>
		<polygon id="XMLID_365_" class="st20" points="52.6,168.3 49.6,173.2 26.6,171.8 43,153.1 		"/>
		<polygon id="XMLID_364_" class="st19" points="19.9,151.1 8.5,171.8 26.6,171.8 		"/>
		<polygon id="XMLID_362_" class="st18" points="49.6,173.2 38.3,190.6 30,193.4 26.6,171.8 		"/>
		<polygon id="XMLID_361_" class="st18" points="65.1,190.6 60.6,190.6 60.6,196.9 		"/>
		<polygon id="XMLID_360_" class="st0" points="49.6,190.6 60.6,190.6 49.6,200.1 		"/>
		<polygon id="XMLID_359_" class="st1" points="60.6,196.9 49.6,212.4 49.6,200.1 60.6,190.6 		"/>
		<polygon id="XMLID_358_" class="st16" points="38.3,190.6 49.6,190.6 49.6,200.1 49.6,212.4 30,193.4 		"/>
		<polygon id="XMLID_357_" class="st17" points="26.6,171.8 10.1,196.9 30,193.4 		"/>
		<polygon id="XMLID_356_" class="st17" points="49.6,212.4 25,212.4 30,193.4 		"/>
		<polygon id="XMLID_355_" class="st18" points="10.1,196.9 30,193.4 25,212.4 		"/>
		<polygon id="XMLID_354_" class="st19" points="10.1,196.9 0,212.4 25,212.4 		"/>
		<polygon id="XMLID_353_" class="st21" points="209,26.9 182,77.7 209,56.3 		"/>
		<polygon id="XMLID_352_" class="st22" points="209,56.3 191.9,87.9 182,77.7 		"/>
		<polygon id="XMLID_351_" class="st22" points="209,26.9 219.9,44 209,56.3 		"/>
		<polygon id="XMLID_350_" class="st16" points="191.9,87.9 209,80.5 209,56.3 		"/>
		<polygon id="XMLID_349_" class="st16" points="219.9,44 235.6,69.9 209,56.3 		"/>
		<polygon id="XMLID_348_" class="st23" points="209,80.5 235.6,69.9 209,56.3 		"/>
		<polygon id="XMLID_347_" class="st21" points="191.9,87.9 209,105.2 209,80.5 		"/>
		<polygon id="XMLID_346_" class="st16" points="235.6,69.9 257.4,104.2 242.7,104.2 		"/>
		<polygon id="XMLID_345_" class="st21" points="209,80.5 242.7,104.2 235.6,69.9 		"/>
		<polygon id="XMLID_344_" class="st0" points="209,105.2 214.5,99.9 209,80.5 		"/>
		<polygon id="XMLID_343_" class="st22" points="242.7,104.2 209,80.5 214.5,99.9 217.8,110.9 235.6,124.6 		"/>
		<polygon id="XMLID_342_" class="st22" points="209,105.2 191.9,126.6 191.9,87.9 		"/>
		<polygon id="XMLID_341_" class="st5" points="214.5,99.9 209,105.2 209,113.7 218.7,129.9 217.8,110.9 		"/>
		<polygon id="XMLID_340_" class="st23" points="191.9,126.6 188.7,157.9 209,145.3 209,113.7 209,105.2 		"/>
		<polygon id="XMLID_339_" class="st24" points="218.7,129.9 221.1,145.3 235.6,124.6 217.8,110.9 		"/>
		<polygon id="XMLID_338_" class="st16" points="242.7,104.2 264.7,131.6 235.6,124.6 		"/>
		<polygon id="XMLID_337_" class="st1" points="221.1,145.3 209,145.3 209,113.7 218.7,129.9 		"/>
		<polygon id="XMLID_336_" class="st25" points="222.3,171.8 235.6,124.6 221.1,145.3 		"/>
		<polygon id="XMLID_335_" class="st23" points="264.7,131.6 291.1,164.7 264.7,164.7 		"/>
		<polygon id="XMLID_334_" class="st22" points="264.7,131.6 235.6,124.6 264.7,164.7 		"/>
		<polygon id="XMLID_333_" class="st0" points="222.3,171.8 209,145.3 221.1,145.3 		"/>
		<polygon id="XMLID_332_" class="st16" points="264.7,164.7 224.7,163.3 235.6,124.6 		"/>
		<polygon id="XMLID_331_" class="st14" points="209,145.3 210,171.8 222.3,171.8 		"/>
		<polygon id="XMLID_330_" class="st22" points="188.7,157.9 199.7,175.6 204.5,170.4 201.5,149.9 		"/>
		<polygon id="XMLID_329_" class="st16" points="210,171.8 204.5,170.4 201.5,149.9 209,145.3 		"/>
		<polygon id="XMLID_328_" class="st22" points="224.7,163.3 222.3,171.8 223.5,208.6 264.7,164.7 		"/>
		<polygon id="XMLID_327_" class="st1" points="210,171.8 209,190.6 222.9,190.6 222.3,171.8 		"/>
		<polygon id="XMLID_326_" class="st23" points="204.5,170.4 210,171.8 209,190.6 199.7,175.6 		"/>
		<polygon id="XMLID_325_" class="st22" points="264.7,164.7 292.5,210.3 267.8,232.3 		"/>
		<polygon id="XMLID_324_" class="st16" points="223.5,208.6 265.9,190.6 264.7,164.7 		"/>
		<polygon id="XMLID_323_" class="st16" points="292.5,210.3 306.1,232.3 267.8,232.3 		"/>
		<polygon id="XMLID_322_" class="st23" points="265.9,190.6 223.5,208.6 267.8,232.3 		"/>
		<polygon id="XMLID_321_" class="st14" points="209,190.6 210,217.5 223.5,208.6 		"/>
		<polygon id="XMLID_320_" class="st22" points="210,217.5 204.8,217.6 197.6,208.6 209,190.6 		"/>
		<polygon id="XMLID_319_" class="st1" points="223.5,208.6 224.7,235.2 217.8,233.7 210,224 210,217.5 		"/>
		<polygon id="XMLID_318_" class="st16" points="204.8,217.6 210,217.5 210,224 		"/>
		<polygon id="XMLID_317_" class="st22" points="267.8,232.3 224.7,235.2 223.5,208.6 		"/>
		<polygon id="XMLID_316_" class="st0" points="217.8,233.7 224.7,235.2 224.7,242.3 		"/>
		<polygon id="XMLID_315_" class="st1" points="224.7,248 224.7,274.9 210,274.9 		"/>
		<polygon id="XMLID_314_" class="st0" points="210,248 210,274.9 224.7,248 		"/>
		<polygon id="XMLID_313_" class="st16" points="182,77.7 173.7,92.9 182,105.2 172.3,116.3 191.9,126.6 191.9,87.9 		"/>
		<polygon id="XMLID_312_" class="st22" points="191.9,126.6 172.3,116.3 166.3,121.8 188.7,157.9 		"/>
		<polygon id="XMLID_311_" class="st9" points="119.4,190.6 99.2,222.4 115.6,248 		"/>
		<polygon id="XMLID_310_" class="st0" points="142.6,248 124.3,248 119.4,190.6 		"/>
		<polygon id="XMLID_309_" class="st1" points="115.6,248 124.3,248 119.4,190.6 		"/>
		<polygon id="XMLID_308_" class="st16" points="209,190.6 182,190.6 197.6,208.6 		"/>
	</g>
	<g id="XMLID_891_">
		<polygon id="XMLID_1069_" class="st0" points="436.2,251 417.2,251 437,275.7 		"/>
		<polygon id="XMLID_1068_" class="st1" points="301.1,395.4 289,395.4 289,346.4 301.1,362.5 		"/>
		<polygon id="XMLID_1067_" class="st2" points="294.3,0 294.3,100.1 256.5,74.1 		"/>
		<polygon id="XMLID_1066_" class="st3" points="345,81.9 294.3,0 294.3,70.9 307.9,100.1 		"/>
		<polygon id="XMLID_1065_" class="st0" points="294.3,100.1 307.9,100.1 294.3,70.9 		"/>
		<polygon id="XMLID_1064_" class="st3" points="256.5,74.1 225.3,134 256.5,134 294.3,100.1 		"/>
		<polygon id="XMLID_1063_" class="st4" points="345,81.9 380.1,134 345,138.5 307.9,107.3 307.9,100.1 		"/>
		<polygon id="XMLID_1062_" class="st5" points="294.3,100.1 307.9,107.3 307.9,100.1 		"/>
		<polygon id="XMLID_1061_" class="st1" points="307.9,152.2 307.9,107.3 294.3,100.1 294.3,143.1 		"/>
		<polygon id="XMLID_1060_" class="st2" points="256.5,134 239,165.8 294.3,183.4 294.3,143.1 294.3,100.1 		"/>
		<polygon id="XMLID_1059_" class="st0" points="307.9,152.2 294.3,143.1 294.3,183.4 307.9,167.8 		"/>
		<polygon id="XMLID_973_" class="st6" points="330.7,138.5 307.9,152.2 307.9,167.8 		"/>
		<polygon id="XMLID_972_" class="st3" points="345,138.5 307.9,107.3 307.9,152.2 330.7,138.5 307.9,167.8 307.9,176.2 
			358.6,156.7 		"/>
		<polygon id="XMLID_971_" class="st4" points="294.3,183.4 266.6,199.6 244.8,212 239,165.8 		"/>
		<polygon id="XMLID_970_" class="st7" points="307.9,176.2 307.9,167.8 294.3,183.4 		"/>
		<polygon id="XMLID_969_" class="st3" points="266.6,199.6 294.3,220.5 294.3,183.4 		"/>
		<polygon id="XMLID_968_" class="st5" points="307.9,176.2 294.3,183.4 294.3,220.5 294.3,251 319.3,231.5 		"/>
		<polygon id="XMLID_967_" class="st8" points="266.6,199.6 294.3,251 294.3,220.5 		"/>
		<polygon id="XMLID_966_" class="st2" points="244.8,212 266.6,199.6 294.3,251 256.5,261.4 		"/>
		<polygon id="XMLID_965_" class="st9" points="239,165.8 183.1,251 244.8,212 		"/>
		<polygon id="XMLID_964_" class="st4" points="256.5,261.4 244.8,212 183.1,251 219.8,251 		"/>
		<polygon id="XMLID_963_" class="st10" points="358.6,156.7 307.9,176.2 319.3,231.5 339.8,220.5 		"/>
		<polygon id="XMLID_962_" class="st9" points="417.2,251 358.6,156.7 339.8,220.5 380.1,251 		"/>
		<polygon id="XMLID_961_" class="st2" points="319.3,231.5 339.8,220.5 344,275.7 319.6,266.6 		"/>
		<polygon id="XMLID_960_" class="st3" points="380.1,251 344,275.7 339.8,220.5 		"/>
		<polygon id="XMLID_956_" class="st0" points="319.6,266.6 294.3,251 319.3,231.5 		"/>
		<polygon id="XMLID_955_" class="st11" points="344,275.7 380.1,304.3 401.6,275.7 380.1,251 		"/>
		<polygon id="XMLID_954_" class="st7" points="319.6,266.6 294.3,251 326.1,329.7 		"/>
		<polygon id="XMLID_953_" class="st2" points="344,275.7 326.1,329.7 359.9,329.7 380.1,304.3 		"/>
		<polygon id="XMLID_952_" class="st12" points="319.6,266.6 344,275.7 326.1,329.7 		"/>
		<polygon id="XMLID_951_" class="st10" points="256.5,261.4 266.6,294.6 294.3,251 		"/>
		<polygon id="XMLID_950_" class="st3" points="219.8,251 256.5,261.4 198.7,280.9 		"/>
		<polygon id="XMLID_949_" class="st13" points="256.5,261.4 266.6,294.6 198.7,280.9 		"/>
		<polygon id="XMLID_948_" class="st10" points="289,329.7 225.3,329.7 198.7,280.9 266.6,294.6 		"/>
		<polygon id="XMLID_947_" class="st8" points="326.1,329.7 301.1,395.4 301.1,329.7 		"/>
		<polygon id="XMLID_946_" class="st2" points="225.3,329.7 160.9,329.7 198.7,280.9 		"/>
		<polygon id="XMLID_945_" class="st1" points="326.1,329.7 326.1,362.5 312,366.6 		"/>
		<polygon id="XMLID_944_" class="st5" points="301.1,395.4 326.1,395.4 326.1,362.5 312,366.6 		"/>
		<polygon id="XMLID_942_" class="st0" points="326.1,362.5 312,366.6 326.1,395.4 		"/>
		<polygon id="XMLID_941_" class="st14" points="289,329.7 289,346.4 301.1,362.5 301.1,329.7 		"/>
		<polygon id="XMLID_940_" class="st3" points="401.6,275.7 444.9,329.7 359.9,329.7 		"/>
		<line id="XMLID_939_" class="st19" x1="198.7" y1="143.1" x2="200.5" y2="175.6"/>
		<line id="XMLID_938_" class="st18" x1="213.7" y1="251" x2="213.7" y2="259.7"/>
		<polygon id="XMLID_937_" class="st21" points="417.2,26.7 380.1,96.2 417.2,67 		"/>
		<polygon id="XMLID_936_" class="st22" points="417.2,67 393.7,110.2 380.1,96.2 		"/>
		<polygon id="XMLID_935_" class="st22" points="417.2,26.7 432.1,50.1 417.2,67 		"/>
		<polygon id="XMLID_934_" class="st16" points="393.7,110.2 417.2,100.1 417.2,67 		"/>
		<polygon id="XMLID_933_" class="st16" points="432.1,50.1 453.6,85.5 417.2,67 		"/>
		<polygon id="XMLID_932_" class="st23" points="417.2,100.1 453.6,85.5 417.2,67 		"/>
		<polygon id="XMLID_931_" class="st21" points="393.7,110.2 417.2,134 417.2,100.1 		"/>
		<polygon id="XMLID_930_" class="st16" points="453.6,85.5 483.5,132.6 463.3,132.6 		"/>
		<polygon id="XMLID_929_" class="st21" points="417.2,100.1 463.3,132.6 453.6,85.5 		"/>
		<polygon id="XMLID_928_" class="st0" points="417.2,134 424.6,126.6 417.2,100.1 		"/>
		<polygon id="XMLID_927_" class="st22" points="463.3,132.6 417.2,100.1 424.6,126.6 429.2,141.8 453.6,160.5 		"/>
		<polygon id="XMLID_926_" class="st22" points="417.2,134 393.7,163.2 393.7,110.2 		"/>
		<polygon id="XMLID_925_" class="st5" points="424.6,126.6 417.2,134 417.2,145.7 430.5,167.8 429.2,141.8 		"/>
		<polygon id="XMLID_924_" class="st23" points="393.7,163.2 389.4,206.2 417.2,188.9 417.2,145.7 417.2,134 		"/>
		<polygon id="XMLID_923_" class="st24" points="430.5,167.8 433.7,188.9 453.6,160.5 429.2,141.8 		"/>
		<polygon id="XMLID_922_" class="st16" points="463.3,132.6 493.6,170.1 453.6,160.5 		"/>
		<polygon id="XMLID_921_" class="st1" points="433.7,188.9 417.2,188.9 417.2,145.7 430.5,167.8 		"/>
		<polygon id="XMLID_920_" class="st25" points="435.4,225.3 453.6,160.5 433.7,188.9 		"/>
		<polygon id="XMLID_919_" class="st23" points="493.6,170.1 529.7,215.6 493.6,215.6 		"/>
		<polygon id="XMLID_918_" class="st22" points="493.6,170.1 453.6,160.5 493.6,215.6 		"/>
		<polygon id="XMLID_917_" class="st0" points="435.4,225.3 417.2,188.9 433.7,188.9 		"/>
		<polygon id="XMLID_916_" class="st16" points="493.6,215.6 438.7,213.6 453.6,160.5 		"/>
		<polygon id="XMLID_915_" class="st14" points="417.2,188.9 418.5,225.3 435.4,225.3 		"/>
		<polygon id="XMLID_914_" class="st22" points="389.4,206.2 404.4,230.5 411,223.4 406.9,195.3 		"/>
		<polygon id="XMLID_913_" class="st16" points="418.5,225.3 411,223.4 406.9,195.3 417.2,188.9 		"/>
		<polygon id="XMLID_912_" class="st22" points="438.7,213.6 435.4,225.3 437,275.7 493.6,215.6 		"/>
		<polygon id="XMLID_911_" class="st1" points="418.5,225.3 417.2,251 436.2,251 435.4,225.3 		"/>
		<polygon id="XMLID_910_" class="st23" points="411,223.4 418.5,225.3 417.2,251 404.4,230.5 		"/>
		<polygon id="XMLID_909_" class="st22" points="493.6,215.6 531.6,278 497.8,308.2 		"/>
		<polygon id="XMLID_908_" class="st16" points="437,275.7 495.2,251 493.6,215.6 		"/>
		<polygon id="XMLID_907_" class="st16" points="531.6,278 550.3,308.2 497.8,308.2 		"/>
		<polygon id="XMLID_906_" class="st23" points="495.2,251 437,275.7 497.8,308.2 		"/>
		<polygon id="XMLID_905_" class="st14" points="417.2,251 418.5,287.9 437,275.7 		"/>
		<polygon id="XMLID_904_" class="st22" points="418.5,287.9 411.5,288.1 401.6,275.7 417.2,251 		"/>
		<polygon id="XMLID_903_" class="st1" points="437,275.7 438.7,312.1 429.2,310.1 418.5,296.8 418.5,287.9 		"/>
		<polygon id="XMLID_902_" class="st16" points="411.5,288.1 418.5,287.9 418.5,296.8 		"/>
		<polygon id="XMLID_901_" class="st22" points="497.8,308.2 438.7,312.1 437,275.7 		"/>
		<polygon id="XMLID_900_" class="st0" points="429.2,310.1 438.7,312.1 438.7,321.9 		"/>
		<polygon id="XMLID_899_" class="st1" points="438.7,329.7 438.7,366.6 418.5,366.6 		"/>
		<polygon id="XMLID_898_" class="st0" points="418.5,329.7 418.5,366.6 438.7,329.7 		"/>
		<polygon id="XMLID_897_" class="st16" points="380.1,96.2 368.7,117.1 380.1,134 366.9,149.1 393.7,163.2 393.7,110.2 		"/>
		<polygon id="XMLID_896_" class="st22" points="393.7,163.2 366.9,149.1 358.6,156.7 389.4,206.2 		"/>
		<polygon id="XMLID_895_" class="st9" points="294.3,251 266.6,294.6 289,329.7 		"/>
		<polygon id="XMLID_894_" class="st0" points="326.1,329.7 301.1,329.7 294.3,251 		"/>
		<polygon id="XMLID_893_" class="st1" points="289,329.7 301.1,329.7 294.3,251 		"/>
		<polygon id="XMLID_892_" class="st16" points="417.2,251 380.1,251 401.6,275.7 		"/>
	</g>
</g>
</svg>
