<?xml version="1.0" encoding="utf-8"?>
<!-- Generator: Adobe Illustrator 19.0.0, SVG Export Plug-In . SVG Version: 6.00 Build 0)  -->
<svg version="1.1" id="Layer_1" xmlns="http://www.w3.org/2000/svg" xmlns:xlink="http://www.w3.org/1999/xlink" x="0px" y="0px"
	 viewBox="0 0 97.6 96" style="enable-background:new 0 0 97.6 96;" xml:space="preserve">
<style type="text/css">
	.st0{fill:#FFFFFF;}
</style>
<g id="XMLID_88_">
	<g id="XMLID_111_">
		<path id="XMLID_74_" class="st0" d="M80.6,73.8L96.7,64L47.5,16.6l-0.1-0.2l0.1-0.2l-0.2-0.1l-0.1-0.1l0,0.1l-0.3-0.2l-0.5-0.5
			l0.2,0.3L30.5,6.8L14.3,73.8h0h-1.1v-0.2L13,74.1l0.1-0.2v18.4l66.7-18.5h0.5l-0.1,0l0.8,0H80.6z M14.6,72.9l32.5-56.3l22.4,38.6
			l10.2,17.6L14.6,72.9z M96.3,63.5l-16.1,9.3L69.9,55.1L48,17.2L96.3,63.5z M30.7,6.8l16.2,9.4l0.1,0.2L14.8,72.1L30.7,6.8z
			 M14.1,92V73.4l0.2,0.2l48.4,0.2h16.1L14.1,92z"/>
		<path id="XMLID_80_" class="st0" d="M13.1,93V75.8l-0.9,1.6l0.9-3.8v-0.8h0.6l0.3-0.5L30.1,5.8l15.1,8.5l-1-1.8l2.8,2.7l0.2-0.3
			l0.5,0.8l0.4,0.2L48,16.2l49.6,47.6L81,73.7l0,0.2l-1.5,0.1L13.1,93z M15.1,73.9v17.4l60.2-17.4L15.1,73.9z M47.2,17.6L15.5,72.4
			l63.4-0.1l-9.7-16.9L47.2,17.6z M50.2,20l20.1,34.8l10,17.3l15.1-8.7L50.2,20z M31,7.5L16.1,68.9l30.3-52.5L31,7.5z"/>
	</g>
	<g id="XMLID_108_">
		<path id="XMLID_68_" class="st0" d="M41.2,7.3c0.6,0.3,1.2,0.5,1.8,0.5c0.3,0,0.6,0,1-0.1C45,7.4,45.7,6.8,46.2,6
			c0.5-0.8,0.6-1.8,0.4-2.8S45.7,1.5,44.9,1c-0.8-0.5-1.8-0.6-2.8-0.4c-0.9,0.3-1.7,0.9-2.2,1.7c-0.5,0.8-0.6,1.8-0.4,2.8
			C39.8,6,40.4,6.8,41.2,7.3z M40.2,2.5c0.4-0.8,1.2-1.3,2-1.6c0.3-0.1,0.6-0.1,0.9-0.1c0.6,0,1.2,0.2,1.7,0.5
			c0.8,0.4,1.3,1.2,1.6,2c0.2,0.9,0.1,1.8-0.3,2.5c-0.4,0.8-1.2,1.3-2,1.6c-0.9,0.2-1.8,0.1-2.5-0.3c-0.8-0.4-1.3-1.2-1.6-2
			C39.6,4.2,39.7,3.2,40.2,2.5z"/>
		<path id="XMLID_71_" class="st0" d="M43.1,8.3c-0.7,0-1.4-0.2-2.1-0.6c-1-0.6-1.6-1.4-1.9-2.5c-0.3-1.1-0.1-2.2,0.4-3.1
			c0.6-1,1.4-1.6,2.5-1.9c1.1-0.3,2.2-0.1,3.1,0.4c1,0.6,1.6,1.4,1.9,2.5s0.1,2.2-0.4,3.1c-0.6,1-1.4,1.6-2.5,1.9
			C43.8,8.3,43.4,8.3,43.1,8.3z M43.1,1.3c-0.2,0-0.5,0-0.7,0.1c-0.7,0.2-1.4,0.7-1.7,1.3l0,0c-0.4,0.7-0.5,1.4-0.3,2.2
			c0.2,0.7,0.7,1.4,1.3,1.7c0.7,0.4,1.4,0.5,2.2,0.3c0.7-0.2,1.4-0.7,1.7-1.3c0.4-0.7,0.5-1.4,0.3-2.2c-0.2-0.7-0.7-1.4-1.3-1.7
			C44.1,1.4,43.6,1.3,43.1,1.3z"/>
	</g>
	<g id="XMLID_105_">
		<path id="XMLID_62_" class="st0" d="M91.1,73.4c-0.8,0.5-1.4,1.3-1.7,2.2c-0.3,0.9-0.1,1.9,0.4,2.8c0.7,1.2,1.9,1.8,3.2,1.8
			c0.6,0,1.2-0.2,1.8-0.5c1.7-1,2.3-3.2,1.3-5C95.1,72.9,92.9,72.3,91.1,73.4z M94.6,79.4c-0.8,0.4-1.7,0.6-2.5,0.3
			c-0.9-0.2-1.6-0.8-2-1.6c-0.4-0.8-0.6-1.7-0.3-2.5c0.2-0.9,0.8-1.6,1.6-2c1.6-0.9,3.7-0.4,4.6,1.2C96.8,76.4,96.3,78.5,94.6,79.4z
			"/>
		<path id="XMLID_65_" class="st0" d="M93,80.7c-1.5,0-2.9-0.8-3.6-2.1c-0.6-1-0.7-2.1-0.4-3.1c0.3-1.1,1-2,1.9-2.5
			c1-0.6,2.1-0.7,3.1-0.4c1.1,0.3,2,1,2.5,1.9c1.1,2,0.5,4.5-1.5,5.7C94.4,80.5,93.7,80.7,93,80.7z M93,73.7c-0.5,0-1,0.1-1.4,0.4
			c-0.7,0.4-1.1,1-1.3,1.7c-0.2,0.7-0.1,1.5,0.3,2.2c0.4,0.7,1,1.1,1.7,1.3c0.7,0.2,1.5,0.1,2.2-0.3c1.4-0.8,1.8-2.5,1-3.9
			C94.9,74.2,94,73.7,93,73.7z"/>
	</g>
	<g id="XMLID_102_">
		<path id="XMLID_16_" class="st0" d="M4.1,79c-2,0-3.6,1.6-3.6,3.6s1.6,3.6,3.6,3.6s3.6-1.6,3.6-3.6S6.2,79,4.1,79z M4.1,86
			c-1.9,0-3.4-1.5-3.4-3.4s1.5-3.4,3.4-3.4s3.4,1.5,3.4,3.4S6,86,4.1,86z"/>
		<path id="XMLID_59_" class="st0" d="M4.1,86.8c-2.3,0-4.1-1.9-4.1-4.1s1.9-4.1,4.1-4.1s4.1,1.9,4.1,4.1S6.4,86.8,4.1,86.8z
			 M4.1,79.7c-1.6,0-2.9,1.3-2.9,2.9s1.3,2.9,2.9,2.9S7,84.2,7,82.6S5.7,79.7,4.1,79.7z"/>
	</g>
	<g id="XMLID_95_">
		<path id="XMLID_55_" class="st0" d="M51.8,53.9h-9.2l-3.7,10.2h-1.6l9.9-27.2l9.9,27.2h-1.6L51.8,53.9z M51.3,52.4l-4.1-11.1
			l-4.1,11.1H51.3z"/>
	</g>
</g>
</svg>
