<?xml version="1.0" encoding="utf-8"?>
<!-- Generator: Adobe Illustrator 19.0.0, SVG Export Plug-In . SVG Version: 6.00 Build 0)  -->
<svg version="1.1" id="Layer_1" xmlns="http://www.w3.org/2000/svg" xmlns:xlink="http://www.w3.org/1999/xlink" x="0px" y="0px"
	 viewBox="0 0 1920 256.5" style="enable-background:new 0 0 1920 256.5;" xml:space="preserve">
<style type="text/css">
	.st0{fill:#B8E0EB;}
	.st1{fill:#9CD5E5;}
	.st2{fill:#3FBCD4;}
	.st3{fill:#D9EEF3;}
	.st4{fill:#CCE8F0;}
	.st5{fill:#95D2E3;}
	.st6{fill:#00AACB;}
	.st7{fill:#5291A8;}
	.st8{fill:#00B6D3;}
	.st9{fill:#69C5DC;}
	.st10{fill:#7CA6B9;}
	.st11{fill:#2695AA;}
	.st12{fill:#70C7DB;}
	.st13{fill:#008098;}
	.st14{fill:#CEDAE2;}
	.st15{fill:#00404D;}
	.st16{fill:#61A0B0;}
	.st17{fill:#17444C;}
</style>
<g id="XMLID_56_">
	<polygon id="XMLID_55_" class="st0" points="1412.5,48.3 1356.7,0.4 1360.7,91.7 	"/>
	<g id="see">
		<polygon id="XMLID_1336_" class="st1" points="133,47.9 77.1,0 81.1,91.3 		"/>
		<polygon id="XMLID_1335_" class="st2" points="77.1,0 -1.1,44.5 81.1,91.3 		"/>
		<polygon id="XMLID_1334_" class="st3" points="133,47.9 79.1,45.6 77.1,0 		"/>
		<polygon id="XMLID_1333_" class="st4" points="600.5,62.7 640,4.1 678.3,62.7 		"/>
		<polygon id="XMLID_1332_" class="st5" points="678.3,172.8 678.3,62.7 600.5,62.7 		"/>
		<polygon id="XMLID_1331_" class="st6" points="678.3,244.6 600.5,219.4 678.3,172.8 		"/>
		<polygon id="XMLID_1330_" class="st7" points="600.5,62.7 600.5,219.4 678.3,172.8 		"/>
		<polygon id="XMLID_1329_" class="st4" points="600.5,62.7 556.6,19.1 510.3,62.7 		"/>
		<polygon id="XMLID_1328_" class="st8" points="600.5,219.4 600.5,62.7 530.2,178.7 		"/>
		<polygon id="XMLID_1327_" class="st9" points="600.5,62.7 510.3,62.7 480.8,110.1 		"/>
		<polygon id="XMLID_1326_" class="st7" points="530.2,178.7 480.8,110.1 600.5,62.7 		"/>
		<polygon id="XMLID_1325_" class="st3" points="510.3,62.7 461.6,26.3 405.8,62.7 		"/>
		<polygon id="XMLID_1324_" class="st10" points="480.8,110.1 510.3,62.7 405.8,62.7 		"/>
		<polygon id="XMLID_1323_" class="st8" points="530.2,178.7 480.8,110.1 439.3,178.7 491.2,219.8 		"/>
		<polygon id="XMLID_1322_" class="st9" points="480.8,110.1 405.8,62.7 439.3,178.7 		"/>
		<polygon id="XMLID_1321_" class="st8" points="405.8,62.7 350.8,158 439.3,178.7 		"/>
		<polygon id="XMLID_1320_" class="st11" points="377.1,219.8 350.8,158 439.3,178.7 		"/>
		<polygon id="XMLID_1319_" class="st1" points="405.8,62.7 347.6,62.7 347.6,19.1 		"/>
		<polygon id="XMLID_1318_" class="st9" points="350.8,158 340.4,110.1 405.8,62.7 		"/>
		<polygon id="XMLID_1317_" class="st3" points="347.6,62.7 289.3,62.7 347.6,19.1 		"/>
		<polygon id="XMLID_1316_" class="st10" points="405.8,62.7 347.6,62.7 289.3,62.7 340.4,110.1 		"/>
		<polygon id="XMLID_1315_" class="st8" points="377.1,219.8 257.4,178.7 350.8,158 		"/>
		<polygon id="XMLID_1314_" class="st7" points="340.4,110.1 350.8,158 257.4,178.7 		"/>
		<polygon id="XMLID_1313_" class="st12" points="289.3,62.7 219.9,56.6 340.4,110.1 		"/>
		<polygon id="XMLID_1312_" class="st8" points="257.4,178.7 219.9,56.6 340.4,110.1 		"/>
		<polygon id="XMLID_1311_" class="st13" points="377.1,219.8 257.4,256.1 257.4,178.7 		"/>
		<polygon id="XMLID_1310_" class="st14" points="289.3,62.7 192,4.1 219.9,56.6 		"/>
		<polygon id="XMLID_1309_" class="st7" points="257.4,178.7 192,155.6 219.9,56.6 		"/>
		<polygon id="XMLID_1308_" class="st15" points="257.4,256.1 356.3,256.1 377.1,219.8 		"/>
		<polygon id="XMLID_1307_" class="st11" points="257.4,178.7 192,155.6 257.4,256.1 		"/>
		<polygon id="XMLID_1306_" class="st12" points="219.9,56.6 133,91.3 133,128.4 192,155.6 		"/>
		<polygon id="XMLID_1305_" class="st4" points="192,4.1 133,47.9 133,91.3 219.9,56.6 		"/>
		<polygon id="XMLID_1304_" class="st13" points="192,155.6 257.4,256.1 133,256.1 		"/>
		<polygon id="XMLID_1303_" class="st8" points="133,128.4 133,256.1 192,155.6 		"/>
		<polygon id="XMLID_1302_" class="st0" points="133,91.3 81.1,91.3 133,47.9 		"/>
		<polygon id="XMLID_1301_" class="st1" points="133,128.4 81.1,91.3 133,91.3 		"/>
		<polygon id="XMLID_1300_" class="st2" points="133,256.1 54,213 133,128.4 		"/>
		<polygon id="XMLID_1299_" class="st9" points="81.1,91.3 81.1,144.4 133,128.4 		"/>
		<polygon id="XMLID_1298_" class="st8" points="54,213 81.1,144.4 133,128.4 		"/>
		<polygon id="XMLID_1297_" class="st13" points="133,256.1 21.3,256.1 54,213 		"/>
		<polygon id="XMLID_1296_" class="st10" points="81.1,91.3 28.5,141.1 81.1,144.4 		"/>
		<polygon id="XMLID_1295_" class="st7" points="54,213 28.5,141.1 81.1,144.4 		"/>
		<polygon id="XMLID_1294_" class="st10" points="-1.1,44.5 -1.1,141.1 28.5,141.1 		"/>
		<polygon id="XMLID_1293_" class="st9" points="81.1,91.3 28.5,141.1 -1.1,44.5 		"/>
		<polygon id="XMLID_1292_" class="st9" points="-1.1,141.1 28.5,141.1 54,213 		"/>
		<polygon id="XMLID_1291_" class="st6" points="-1.1,213 -1.1,141.1 54,213 		"/>
		<polygon id="XMLID_1290_" class="st15" points="21.3,256.1 -1.1,256.1 -1.1,213 54,213 		"/>
		<polygon id="XMLID_1289_" class="st13" points="356.3,256.1 457.3,256.1 377.1,219.8 		"/>
		<polygon id="XMLID_1288_" class="st16" points="439.3,178.7 377.1,219.8 457.3,256.1 		"/>
		<polygon id="XMLID_1287_" class="st11" points="491.2,219.8 457.3,256.1 439.3,178.7 		"/>
		<polygon id="XMLID_1286_" class="st17" points="457.3,256.1 534.6,256.1 491.2,219.8 		"/>
		<polygon id="XMLID_1285_" class="st13" points="530.2,178.7 534.6,256.1 491.2,219.8 		"/>
		<polygon id="XMLID_1284_" class="st15" points="534.6,256.1 600.5,256.1 600.5,219.4 		"/>
		<polygon id="XMLID_1283_" class="st11" points="530.2,178.7 600.5,219.4 534.6,256.1 		"/>
		<polygon id="XMLID_1282_" class="st13" points="600.5,256.1 600.5,219.4 678.3,244.6 678.3,256.1 		"/>
		<polygon id="XMLID_1281_" class="st1" points="1145.8,47.9 1201.7,0 1197.7,91.3 		"/>
		<polygon id="XMLID_1280_" class="st4" points="1201.7,0 1279.8,44.5 1197.7,91.3 		"/>
		<polygon id="XMLID_1279_" class="st3" points="1145.8,47.9 1199.7,45.6 1201.7,0 		"/>
		<polygon id="XMLID_1278_" class="st4" points="678.3,62.7 722.2,19.1 768.5,62.7 		"/>
		<polygon id="XMLID_1277_" class="st8" points="678.3,219.4 678.3,62.7 748.5,178.7 		"/>
		<polygon id="XMLID_1276_" class="st9" points="678.3,62.7 768.5,62.7 798,110.1 		"/>
		<polygon id="XMLID_1275_" class="st7" points="748.5,178.7 798,110.1 678.3,62.7 		"/>
		<polygon id="XMLID_1274_" class="st3" points="768.5,62.7 817.2,26.3 873,62.7 		"/>
		<polygon id="XMLID_1273_" class="st10" points="798,110.1 768.5,62.7 873,62.7 		"/>
		<polygon id="XMLID_1272_" class="st8" points="748.5,178.7 798,110.1 839.5,178.7 787.6,219.8 		"/>
		<polygon id="XMLID_1271_" class="st9" points="798,110.1 873,62.7 839.5,178.7 		"/>
		<polygon id="XMLID_1270_" class="st8" points="873,62.7 928,158 839.5,178.7 		"/>
		<polygon id="XMLID_1269_" class="st11" points="901.7,219.8 928,158 839.5,178.7 		"/>
		<polygon id="XMLID_1268_" class="st1" points="873,62.7 931.2,62.7 931.2,19.1 		"/>
		<polygon id="XMLID_1267_" class="st9" points="928,158 938.4,110.1 873,62.7 		"/>
		<polygon id="XMLID_1266_" class="st3" points="931.2,62.7 989.5,62.7 931.2,19.1 		"/>
		<polygon id="XMLID_1265_" class="st10" points="873,62.7 931.2,62.7 989.5,62.7 938.4,110.1 		"/>
		<polygon id="XMLID_1264_" class="st8" points="901.7,219.8 1021.4,178.7 928,158 		"/>
		<polygon id="XMLID_1263_" class="st7" points="938.4,110.1 928,158 1021.4,178.7 		"/>
		<polygon id="XMLID_1262_" class="st12" points="989.5,62.7 1058.9,56.6 938.4,110.1 		"/>
		<polygon id="XMLID_1261_" class="st8" points="1021.4,178.7 1058.9,56.6 938.4,110.1 		"/>
		<polygon id="XMLID_1260_" class="st13" points="901.7,219.8 1021.4,256.1 1021.4,178.7 		"/>
		<polygon id="XMLID_1259_" class="st14" points="989.5,62.7 1086.8,4.1 1058.9,56.6 		"/>
		<polygon id="XMLID_1258_" class="st7" points="1021.4,178.7 1086.8,155.6 1058.9,56.6 		"/>
		<polygon id="XMLID_1257_" class="st15" points="1021.4,256.1 922.5,256.1 901.7,219.8 		"/>
		<polygon id="XMLID_1256_" class="st11" points="1021.4,178.7 1086.8,155.6 1021.4,256.1 		"/>
		<polygon id="XMLID_1255_" class="st12" points="1058.9,56.6 1145.8,91.3 1145.8,128.4 1086.8,155.6 		"/>
		<polygon id="XMLID_1254_" class="st4" points="1086.8,4.1 1145.8,47.9 1145.8,91.3 1058.9,56.6 		"/>
		<polygon id="XMLID_1253_" class="st13" points="1086.8,155.6 1021.4,256.1 1145.8,256.1 		"/>
		<polygon id="XMLID_1252_" class="st8" points="1145.8,128.4 1145.8,256.1 1086.8,155.6 		"/>
		<polygon id="XMLID_1251_" class="st0" points="1145.8,91.3 1197.7,91.3 1145.8,47.9 		"/>
		<polygon id="XMLID_1250_" class="st1" points="1145.8,128.4 1197.7,91.3 1145.8,91.3 		"/>
		<polygon id="XMLID_1249_" class="st2" points="1145.8,256.1 1224.8,213 1145.8,128.4 		"/>
		<polygon id="XMLID_1248_" class="st9" points="1197.7,91.3 1197.7,144.4 1145.8,128.4 		"/>
		<polygon id="XMLID_1247_" class="st8" points="1224.8,213 1197.7,144.4 1145.8,128.4 		"/>
		<polygon id="XMLID_1246_" class="st13" points="1145.8,256.1 1257.5,256.1 1224.8,213 		"/>
		<polygon id="XMLID_1245_" class="st10" points="1197.7,91.3 1250.3,141.1 1197.7,144.4 		"/>
		<polygon id="XMLID_1244_" class="st7" points="1224.8,213 1250.3,141.1 1197.7,144.4 		"/>
		<polygon id="XMLID_1243_" class="st10" points="1279.8,44.5 1279.8,141.1 1250.3,141.1 		"/>
		<polygon id="XMLID_1242_" class="st9" points="1197.7,91.3 1250.3,141.1 1279.8,44.5 		"/>
		<polygon id="XMLID_1241_" class="st9" points="1279.8,141.1 1250.3,141.1 1224.8,213 		"/>
		<polygon id="XMLID_1240_" class="st6" points="1279.8,213 1279.8,141.1 1224.8,213 		"/>
		<polygon id="XMLID_1239_" class="st15" points="1257.5,256.1 1279.8,256.1 1279.8,213 1224.8,213 		"/>
		<polygon id="XMLID_1238_" class="st13" points="922.5,256.1 821.5,256.1 901.7,219.8 		"/>
		<polygon id="XMLID_1237_" class="st16" points="839.5,178.7 901.7,219.8 821.5,256.1 		"/>
		<polygon id="XMLID_1236_" class="st11" points="787.6,219.8 821.5,256.1 839.5,178.7 		"/>
		<polygon id="XMLID_1235_" class="st17" points="821.5,256.1 744.2,256.1 787.6,219.8 		"/>
		<polygon id="XMLID_1234_" class="st13" points="748.5,178.7 744.2,256.1 787.6,219.8 		"/>
		<polygon id="XMLID_1233_" class="st15" points="744.2,256.1 678.3,256.1 678.3,219.4 		"/>
		<polygon id="XMLID_1232_" class="st11" points="748.5,178.7 678.3,219.4 744.2,256.1 		"/>
	</g>
	<polygon id="XMLID_54_" class="st1" points="1356.7,0.4 1278.5,44.9 1360.7,91.7 	"/>
	<polygon id="XMLID_53_" class="st3" points="1412.5,48.3 1358.7,46 1356.7,0.4 	"/>
	<polyline id="XMLID_52_" class="st4" points="1957.8,63.1 1880.1,63.1 1919.6,4.5 1957.8,63.1 	"/>
	<polyline id="XMLID_51_" class="st5" points="1957.8,63.1 1880.1,63.1 1957.8,173.2 	"/>
	<polyline id="XMLID_50_" class="st6" points="1957.8,245 1880.1,219.8 1957.8,173.2 	"/>
	<polyline id="XMLID_49_" class="st7" points="1957.8,173.2 1880.1,63.1 1880.1,219.8 1957.8,173.2 	"/>
	<polygon id="XMLID_48_" class="st4" points="1880.1,63.1 1836.1,19.5 1789.9,63.1 	"/>
	<polygon id="XMLID_47_" class="st8" points="1880.1,219.8 1880.1,63.1 1809.8,179.1 	"/>
	<polygon id="XMLID_46_" class="st9" points="1880.1,63.1 1789.9,63.1 1760.3,110.5 	"/>
	<polygon id="XMLID_45_" class="st7" points="1809.8,179.1 1760.3,110.5 1880.1,63.1 	"/>
	<polygon id="XMLID_44_" class="st3" points="1789.9,63.1 1741.2,26.7 1685.4,63.1 	"/>
	<polygon id="XMLID_43_" class="st10" points="1760.3,110.5 1789.9,63.1 1685.4,63.1 	"/>
	<polygon id="XMLID_42_" class="st8" points="1809.8,179.1 1760.3,110.5 1718.9,179.1 1770.7,220.2 	"/>
	<polygon id="XMLID_41_" class="st9" points="1760.3,110.5 1685.4,63.1 1718.9,179.1 	"/>
	<polygon id="XMLID_40_" class="st8" points="1685.4,63.1 1630.3,158.4 1718.9,179.1 	"/>
	<polygon id="XMLID_39_" class="st11" points="1656.6,220.2 1630.3,158.4 1718.9,179.1 	"/>
	<polygon id="XMLID_38_" class="st1" points="1685.4,63.1 1627.1,63.1 1627.1,19.5 	"/>
	<polygon id="XMLID_37_" class="st9" points="1630.3,158.4 1619.9,110.5 1685.4,63.1 	"/>
	<polygon id="XMLID_36_" class="st3" points="1627.1,63.1 1568.9,63.1 1627.1,19.5 	"/>
	<polygon id="XMLID_35_" class="st10" points="1685.4,63.1 1627.1,63.1 1568.9,63.1 1619.9,110.5 	"/>
	<polygon id="XMLID_34_" class="st8" points="1656.6,220.2 1537,179.1 1630.3,158.4 	"/>
	<polygon id="XMLID_33_" class="st7" points="1619.9,110.5 1630.3,158.4 1537,179.1 	"/>
	<polygon id="XMLID_32_" class="st12" points="1568.9,63.1 1499.5,57 1619.9,110.5 	"/>
	<polygon id="XMLID_31_" class="st8" points="1537,179.1 1499.5,57 1619.9,110.5 	"/>
	<polygon id="XMLID_30_" class="st13" points="1656.6,220.2 1537,256.5 1537,179.1 	"/>
	<polygon id="XMLID_29_" class="st14" points="1568.9,63.1 1471.6,4.5 1499.5,57 	"/>
	<polygon id="XMLID_28_" class="st7" points="1537,179.1 1471.6,156 1499.5,57 	"/>
	<polygon id="XMLID_27_" class="st15" points="1537,256.5 1635.9,256.5 1656.6,220.2 	"/>
	<polygon id="XMLID_26_" class="st11" points="1537,179.1 1471.6,156 1537,256.5 	"/>
	<polygon id="XMLID_25_" class="st12" points="1499.5,57 1412.5,91.7 1412.5,128.8 1471.6,156 	"/>
	<polygon id="XMLID_24_" class="st4" points="1471.6,4.5 1412.5,48.3 1412.5,91.7 1499.5,57 	"/>
	<polygon id="XMLID_23_" class="st13" points="1471.6,156 1537,256.5 1412.5,256.5 	"/>
	<polygon id="XMLID_22_" class="st8" points="1412.5,128.8 1412.5,256.5 1471.6,156 	"/>
	<polygon id="XMLID_21_" class="st0" points="1412.5,91.7 1360.7,91.7 1412.5,48.3 	"/>
	<polygon id="XMLID_20_" class="st1" points="1412.5,128.8 1360.7,91.7 1412.5,91.7 	"/>
	<polygon id="XMLID_19_" class="st2" points="1412.5,256.5 1333.6,213.4 1412.5,128.8 	"/>
	<polygon id="XMLID_18_" class="st9" points="1360.7,91.7 1360.7,144.8 1412.5,128.8 	"/>
	<polygon id="XMLID_17_" class="st8" points="1333.6,213.4 1360.7,144.8 1412.5,128.8 	"/>
	<polygon id="XMLID_16_" class="st13" points="1412.5,256.5 1300.8,256.5 1333.6,213.4 	"/>
	<polygon id="XMLID_15_" class="st10" points="1360.7,91.7 1308,141.5 1360.7,144.8 	"/>
	<polygon id="XMLID_14_" class="st7" points="1333.6,213.4 1308,141.5 1360.7,144.8 	"/>
	<polygon id="XMLID_13_" class="st10" points="1278.5,44.9 1278.5,141.5 1308,141.5 	"/>
	<polygon id="XMLID_12_" class="st9" points="1360.7,91.7 1308,141.5 1278.5,44.9 	"/>
	<polygon id="XMLID_11_" class="st9" points="1278.5,141.5 1308,141.5 1333.6,213.4 	"/>
	<polygon id="XMLID_10_" class="st6" points="1278.5,213.4 1278.5,141.5 1333.6,213.4 	"/>
	<polygon id="XMLID_9_" class="st15" points="1300.8,256.5 1278.5,256.5 1278.5,213.4 1333.6,213.4 	"/>
	<polygon id="XMLID_8_" class="st13" points="1635.9,256.5 1736.8,256.5 1656.6,220.2 	"/>
	<polygon id="XMLID_7_" class="st16" points="1718.9,179.1 1656.6,220.2 1736.8,256.5 	"/>
	<polygon id="XMLID_6_" class="st11" points="1770.7,220.2 1736.8,256.5 1718.9,179.1 	"/>
	<polygon id="XMLID_5_" class="st17" points="1736.8,256.5 1814.2,256.5 1770.7,220.2 	"/>
	<polygon id="XMLID_4_" class="st13" points="1809.8,179.1 1814.2,256.5 1770.7,220.2 	"/>
	<polygon id="XMLID_3_" class="st15" points="1814.2,256.5 1880.1,256.5 1880.1,219.8 	"/>
	<polygon id="XMLID_2_" class="st11" points="1809.8,179.1 1880.1,219.8 1814.2,256.5 	"/>
	<polyline id="XMLID_1_" class="st13" points="1957.8,256.5 1880.1,256.5 1880.1,219.8 1957.8,245 	"/>
</g>
</svg>
