<?xml version="1.0" encoding="utf-8"?>
<!-- Generator: Adobe Illustrator 19.0.0, SVG Export Plug-In . SVG Version: 6.00 Build 0)  -->
<svg version="1.1" id="Layer_3" xmlns="http://www.w3.org/2000/svg" xmlns:xlink="http://www.w3.org/1999/xlink" x="0px" y="0px"
	 viewBox="0 0 16.2 438.2" style="enable-background:new 0 0 16.2 438.2;" xml:space="preserve">
<style type="text/css">
	.st0{fill:none;}
	.st1{fill:#FFFFFF;}
</style>
<g id="XMLID_143_">
	<g id="XMLID_31_">
		<path id="XMLID_84_" class="st0" d="M6.1,429.6v-3.1c-1.3,0.7-2.1,2-2.1,3.6c0,2.3,1.8,4.1,4.1,4.1s4.1-1.8,4.1-4.1
			c0-1.5-0.9-2.9-2.1-3.6v3.1H6.1z"/>
		<path id="XMLID_83_" class="st0" d="M4,289.1c0,1.5,0.9,2.9,2.1,3.6v-7.2C4.9,286.2,4,287.6,4,289.1z"/>
		<path id="XMLID_82_" class="st0" d="M4,148.1c0,1.5,0.9,2.9,2.1,3.6v-7.2C4.9,145.2,4,146.6,4,148.1z"/>
		<path id="XMLID_81_" class="st0" d="M12.2,148.1c0-1.5-0.9-2.9-2.1-3.6v7.2C11.4,151,12.2,149.7,12.2,148.1z"/>
		<path id="XMLID_80_" class="st0" d="M12.2,289.1c0-1.5-0.9-2.9-2.1-3.6v7.2C11.4,292,12.2,290.7,12.2,289.1z"/>
		<path id="XMLID_79_" class="st0" d="M10.1,7.6v4.1c1.3-0.7,2.1-2,2.1-3.6c0-2.3-1.8-4.1-4.1-4.1S4,5.8,4,8.1
			c0,1.5,0.9,2.9,2.1,3.6V7.6H10.1z"/>
		<path id="XMLID_78_" class="st1" d="M10.1,140.3V16c-0.6,0.2-1.3,0.3-2,0.3s-1.4-0.1-2-0.3v124.3c0.6-0.2,1.3-0.3,2-0.3
			S9.5,140.1,10.1,140.3z"/>
		<path id="XMLID_77_" class="st1" d="M8.1,156.2c-0.7,0-1.4-0.1-2-0.3v125.3c0.6-0.2,1.3-0.3,2-0.3s1.4,0.1,2,0.3V156
			C9.5,156.1,8.8,156.2,8.1,156.2z"/>
		<path id="XMLID_76_" class="st1" d="M6.1,297v125.3c0.6-0.2,1.3-0.3,2-0.3s1.4,0.1,2,0.3V297c-0.6,0.2-1.3,0.3-2,0.3
			S6.8,297.1,6.1,297z"/>
		<path id="XMLID_75_" class="st1" d="M6.1,11.7c0.6,0.3,1.3,0.5,2,0.5s1.4-0.2,2-0.5"/>
		<path id="XMLID_74_" class="st1" d="M6.1,430.1"/>
		<path id="XMLID_52_" class="st1" d="M10.1,426.5c-0.6-0.3-1.3-0.5-2-0.5s-1.4,0.2-2,0.5"/>
		<path id="XMLID_49_" class="st1" d="M10.1,16c3.5-0.9,6.1-4.1,6.1-7.9c0-4.5-3.6-8.1-8.1-8.1S0,3.6,0,8.1c0,3.8,2.6,7,6.1,7.9
			c0.6,0.2,1.3,0.3,2,0.3S9.5,16.1,10.1,16z M4,8.1C4,5.8,5.8,4,8.1,4s4.1,1.8,4.1,4.1c0,1.5-0.9,2.9-2.1,3.6
			c-0.6,0.3-1.3,0.5-2,0.5s-1.4-0.2-2-0.5C4.9,11,4,9.7,4,8.1z"/>
		<path id="XMLID_38_" class="st1" d="M6.1,422.3c-3.5,0.9-6.1,4.1-6.1,7.9c0,4.5,3.6,8.1,8.1,8.1s8.1-3.6,8.1-8.1
			c0-3.8-2.6-7-6.1-7.9c-0.6-0.2-1.3-0.3-2-0.3S6.8,422.1,6.1,422.3z M12.2,430.1c0,2.3-1.8,4.1-4.1,4.1S4,432.4,4,430.1
			c0-1.5,0.9-2.9,2.1-3.6c0.6-0.3,1.3-0.5,2-0.5s1.4,0.2,2,0.5C11.4,427.2,12.2,428.6,12.2,430.1z"/>
		<path id="XMLID_35_" class="st1" d="M6.1,281.3c-3.5,0.9-6.1,4.1-6.1,7.9s2.6,7,6.1,7.9c0.6,0.2,1.3,0.3,2,0.3s1.4-0.1,2-0.3
			c3.5-0.9,6.1-4.1,6.1-7.9s-2.6-7-6.1-7.9c-0.6-0.2-1.3-0.3-2-0.3S6.8,281.1,6.1,281.3z M12.2,289.1c0,1.5-0.9,2.9-2.1,3.6
			c-0.6,0.3-1.3,0.5-2,0.5s-1.4-0.2-2-0.5c-1.3-0.7-2.1-2-2.1-3.6s0.9-2.9,2.1-3.6c0.6-0.3,1.3-0.5,2-0.5s1.4,0.2,2,0.5
			C11.4,286.2,12.2,287.6,12.2,289.1z"/>
		<path id="XMLID_32_" class="st1" d="M10.1,156c3.5-0.9,6.1-4.1,6.1-7.9s-2.6-7-6.1-7.9c-0.6-0.2-1.3-0.3-2-0.3s-1.4,0.1-2,0.3
			c-3.5,0.9-6.1,4.1-6.1,7.9s2.6,7,6.1,7.9c0.6,0.2,1.3,0.3,2,0.3S9.5,156.1,10.1,156z M4,148.1c0-1.5,0.9-2.9,2.1-3.6
			c0.6-0.3,1.3-0.5,2-0.5s1.4,0.2,2,0.5c1.3,0.7,2.1,2,2.1,3.6s-0.9,2.9-2.1,3.6c-0.6,0.3-1.3,0.5-2,0.5s-1.4-0.2-2-0.5
			C4.9,151,4,149.7,4,148.1z"/>
	</g>
</g>
</svg>
