<?xml version="1.0" encoding="utf-8"?>
<!-- Generator: Adobe Illustrator 19.0.0, SVG Export Plug-In . SVG Version: 6.00 Build 0)  -->
<svg version="1.1" id="Layer_1" xmlns="http://www.w3.org/2000/svg" xmlns:xlink="http://www.w3.org/1999/xlink" x="0px" y="0px"
	 viewBox="0 0 1920 878.1" style="enable-background:new 0 0 1920 878.1;" xml:space="preserve">
<style type="text/css">
	.st0{fill:#FCEE21;}
	.st1{display:none;fill:none;}
</style>
<symbol  id="New_Symbol" viewBox="-14 -12.4 28 24.7">
	<polygon id="XMLID_244_" class="st0" points="1,12.4 14,-12.4 -14,-11.2 	"/>
	<polygon id="XMLID_245_" class="st1" points="-14,12 14,12 14,-12 -14,-12 	"/>
</symbol>
<g id="XMLID_16_">
	
		<use xlink:href="#New_Symbol"  width="28" height="24.7" id="XMLID_326_" x="-14" y="-12.4" transform="matrix(0.9421 0.5331 0.5331 -0.9421 51.9542 112.1303)" style="overflow:visible;"/>
	
		<use xlink:href="#New_Symbol"  width="28" height="24.7" id="XMLID_328_" x="-14" y="-12.4" transform="matrix(0.8113 0.8852 0.8852 -0.8113 89.7173 120.8912)" style="overflow:visible;opacity:0.8895;"/>
	
		<use xlink:href="#New_Symbol"  width="28" height="24.7" id="XMLID_358_" x="-14" y="-12.4" transform="matrix(0.9368 -0.3499 -0.3499 -0.9368 433.8173 136.6283)" style="overflow:visible;opacity:0.3324;"/>
	
		<use xlink:href="#New_Symbol"  width="28" height="24.7" id="XMLID_381_" x="-14" y="-12.4" transform="matrix(0.9831 0.1828 0.1828 -0.9831 763.9213 124.6794)" style="overflow:visible;opacity:0.9252;"/>
	
		<use xlink:href="#New_Symbol"  width="28" height="24.7" id="XMLID_405_" x="-14" y="-12.4" transform="matrix(0.984 -0.1784 -0.1784 -0.984 1082.5629 140.0616)" style="overflow:visible;opacity:0.697;"/>
	
		<use xlink:href="#New_Symbol"  width="28" height="24.7" id="XMLID_418_" x="-14" y="-12.4" transform="matrix(0.8931 0.4823 0.4823 -0.8931 1288.7297 136.9538)" style="overflow:visible;opacity:0.6984;"/>
	
		<use xlink:href="#New_Symbol"  width="28" height="24.7" id="XMLID_428_" x="-14" y="-12.4" transform="matrix(1.1235 0.3806 0.3806 -1.1235 1436.499 139.3975)" style="overflow:visible;opacity:0.6476;"/>
	
		<use xlink:href="#New_Symbol"  width="28" height="24.7" id="XMLID_437_" x="-14" y="-12.4" transform="matrix(0.9266 -0.376 -0.376 -0.9266 1562.2711 154.829)" style="overflow:visible;opacity:0.1336;"/>
	
		<use xlink:href="#New_Symbol"  width="28" height="24.7" id="XMLID_451_" x="-14" y="-12.4" transform="matrix(0.5959 -0.8031 -0.8031 -0.5959 1728.0667 156.6715)" style="overflow:visible;opacity:0.8999;"/>
	
		<use xlink:href="#New_Symbol"  width="28" height="24.7" id="XMLID_461_" x="-14" y="-12.4" transform="matrix(0.9993 -3.742418e-002 -3.742418e-002 -0.9993 1787.1997 158.5261)" style="overflow:visible;"/>
	
		<use xlink:href="#New_Symbol"  width="28" height="24.7" id="XMLID_466_" x="-14" y="-12.4" transform="matrix(0.9997 2.369878e-002 2.369878e-002 -0.9997 1847.0803 165.2265)" style="overflow:visible;"/>
	
		<use xlink:href="#New_Symbol"  width="28" height="24.7" id="XMLID_446_" x="-14" y="-12.4" transform="matrix(0.8587 -0.5125 -0.5125 -0.8587 1625.2825 245.7015)" style="overflow:visible;opacity:0.7615;"/>
	
		<use xlink:href="#New_Symbol"  width="28" height="24.7" id="XMLID_415_" x="-14" y="-12.4" transform="matrix(1.0114 -0.3907 -0.3907 -1.0114 1210.6595 296.1523)" style="overflow:visible;opacity:0.5913;"/>
	
		<use xlink:href="#New_Symbol"  width="28" height="24.7" id="XMLID_391_" x="-14" y="-12.4" transform="matrix(0.9995 3.027168e-002 3.027168e-002 -0.9995 906.7314 342.4026)" style="overflow:visible;opacity:0.937;"/>
	
		<use xlink:href="#New_Symbol"  width="28" height="24.7" id="XMLID_373_" x="-14" y="-12.4" transform="matrix(0.3983 -0.9173 -0.9173 -0.3983 629.9142 499.8719)" style="overflow:visible;opacity:0.9648;"/>
	
		<use xlink:href="#New_Symbol"  width="28" height="24.7" id="XMLID_357_" x="-14" y="-12.4" transform="matrix(1.0058 1.078691e-002 1.078691e-002 -1.0058 447.5283 347.6754)" style="overflow:visible;opacity:0.8326;"/>
	
		<use xlink:href="#New_Symbol"  width="28" height="24.7" id="XMLID_341_" x="-14" y="-12.4" transform="matrix(1.049 -0.2656 -0.2656 -1.049 212.7796 460.1491)" style="overflow:visible;"/>
	
		<use xlink:href="#New_Symbol"  width="28" height="24.7" id="XMLID_335_" x="-14" y="-12.4" transform="matrix(0.9818 -0.1901 -0.1901 -0.9818 162.8318 527.0196)" style="overflow:visible;opacity:0.4915;"/>
	
		<use xlink:href="#New_Symbol"  width="28" height="24.7" id="XMLID_351_" x="-14" y="-12.4" transform="matrix(0.9357 0.3529 0.3529 -0.9357 386.8395 835.8934)" style="overflow:visible;opacity:0.7945;"/>
	
		<use xlink:href="#New_Symbol"  width="28" height="24.7" id="XMLID_436_" x="-14" y="-12.4" transform="matrix(1.0711 0.4999 0.4999 -1.0711 1570.7057 635.5795)" style="overflow:visible;opacity:0.9387;"/>
	
		<use xlink:href="#New_Symbol"  width="28" height="24.7" id="XMLID_460_" x="-14" y="-12.4" transform="matrix(1.0643 0.1264 0.1264 -1.0643 1778.7372 262.9234)" style="overflow:visible;opacity:0.5734;"/>
	
		<use xlink:href="#New_Symbol"  width="28" height="24.7" id="XMLID_432_" x="-14" y="-12.4" transform="matrix(0.857 0.5152 0.5152 -0.857 1482.4385 29.9579)" style="overflow:visible;opacity:0.9784;"/>
	
		<use xlink:href="#New_Symbol"  width="28" height="24.7" id="XMLID_386_" x="-14" y="-12.4" transform="matrix(1 9.578106e-003 9.578106e-003 -1 831.7471 33.946)" style="overflow:visible;opacity:0.4743;"/>
	
		<use xlink:href="#New_Symbol"  width="28" height="24.7" id="XMLID_356_" x="-14" y="-12.4" transform="matrix(0.8439 -0.5366 -0.5366 -0.8439 432.8319 74.551)" style="overflow:visible;opacity:0.3411;"/>
	
		<use xlink:href="#New_Symbol"  width="28" height="24.7" id="XMLID_334_" x="-14" y="-12.4" transform="matrix(1.1371 0.2455 0.2455 -1.1371 183.1786 311.0511)" style="overflow:visible;opacity:0.4128;"/>
	
		<use xlink:href="#New_Symbol"  width="28" height="24.7" id="XMLID_348_" x="-14" y="-12.4" transform="matrix(0.8818 -0.4717 -0.4717 -0.8818 379.9439 583.3882)" style="overflow:visible;opacity:0.356;"/>
	
		<use xlink:href="#New_Symbol"  width="28" height="24.7" id="XMLID_400_" x="-14" y="-12.4" transform="matrix(0.9658 -0.2593 -0.2593 -0.9658 1025.1515 432.6286)" style="overflow:visible;opacity:0.6299;"/>
	
		<use xlink:href="#New_Symbol"  width="28" height="24.7" id="XMLID_407_" x="-14" y="-12.4" transform="matrix(0.9838 0.1791 0.1791 -0.9838 1130.9178 127.0661)" style="overflow:visible;opacity:0.6596;"/>
	
		<use xlink:href="#New_Symbol"  width="28" height="24.7" id="XMLID_378_" x="-14" y="-12.4" transform="matrix(0.9962 8.682274e-002 8.682274e-002 -0.9962 712.3128 75.6643)" style="overflow:visible;opacity:0.7927;"/>
	
		<use xlink:href="#New_Symbol"  width="28" height="24.7" id="XMLID_346_" x="-14" y="-12.4" transform="matrix(0.8057 -0.6113 -0.6113 -0.8057 334.6325 574.961)" style="overflow:visible;opacity:0.5658;"/>
	
		<use xlink:href="#New_Symbol"  width="28" height="24.7" id="XMLID_399_" x="-14" y="-12.4" transform="matrix(1 0 0 -1 1035 832.0909)" style="overflow:visible;"/>
	
		<use xlink:href="#New_Symbol"  width="28" height="24.7" id="XMLID_435_" x="-14" y="-12.4" transform="matrix(1.0176 0.1501 0.1501 -1.0176 1561.3018 546.584)" style="overflow:visible;opacity:0.7927;"/>
	
		<use xlink:href="#New_Symbol"  width="28" height="24.7" id="XMLID_410_" x="-14" y="-12.4" transform="matrix(0.9949 -0.2967 -0.2967 -0.9949 1168.6438 324.8869)" style="overflow:visible;opacity:0.451;"/>
	
		<use xlink:href="#New_Symbol"  width="28" height="24.7" id="XMLID_361_" x="-14" y="-12.4" transform="matrix(1.36 -0.55 -0.55 -1.36 472.9764 460.0249)" style="overflow:visible;opacity:0.7529;"/>
	
		<use xlink:href="#New_Symbol"  width="28" height="24.7" id="XMLID_396_" x="-14" y="-12.4" transform="matrix(1.0176 0.3701 0.3701 -1.0176 958.2026 721.0743)" style="overflow:visible;opacity:0.9261;"/>
	
		<use xlink:href="#New_Symbol"  width="28" height="24.7" id="XMLID_398_" x="-14" y="-12.4" transform="matrix(0.9297 0.3682 0.3682 -0.9297 1017.7412 585.0407)" style="overflow:visible;opacity:0.999;"/>
	
		<use xlink:href="#New_Symbol"  width="28" height="24.7" id="XMLID_372_" x="-14" y="-12.4" transform="matrix(0.9177 0.3973 0.3973 -0.9177 619.5037 675.4109)" style="overflow:visible;opacity:0.3269;"/>
	
		<use xlink:href="#New_Symbol"  width="28" height="24.7" id="XMLID_414_" x="-14" y="-12.4" transform="matrix(1.0285 0.3775 0.3775 -1.0285 1230.3314 721.2295)" style="overflow:visible;opacity:0.877;"/>
	
		<use xlink:href="#New_Symbol"  width="28" height="24.7" id="XMLID_424_" x="-14" y="-12.4" transform="matrix(0.8335 0.7768 0.7768 -0.8335 1377.2153 650.1118)" style="overflow:visible;opacity:0.7181;"/>
	
		<use xlink:href="#New_Symbol"  width="28" height="24.7" id="XMLID_431_" x="-14" y="-12.4" transform="matrix(0.9081 0.4213 0.4213 -0.9081 1473.0665 744.2842)" style="overflow:visible;opacity:0.9593;"/>
	
		<use xlink:href="#New_Symbol"  width="28" height="24.7" id="XMLID_445_" x="-14" y="-12.4" transform="matrix(1.0699 0.1922 0.1922 -1.0699 1632.316 674.9136)" style="overflow:visible;"/>
	
		<use xlink:href="#New_Symbol"  width="28" height="24.7" id="XMLID_430_" x="-14" y="-12.4" transform="matrix(0.9706 0.2409 0.2409 -0.9706 1499.4918 752.7189)" style="overflow:visible;"/>
	
		<use xlink:href="#New_Symbol"  width="28" height="24.7" id="XMLID_434_" x="-14" y="-12.4" transform="matrix(0.9998 2.090951e-002 2.090951e-002 -0.9998 1573.8068 815.5745)" style="overflow:visible;"/>
	
		<use xlink:href="#New_Symbol"  width="28" height="24.7" id="XMLID_448_" x="-14" y="-12.4" transform="matrix(0.3229 0.9962 0.9962 -0.3229 1673.4744 797.5195)" style="overflow:visible;opacity:0.5164;"/>
	
		<use xlink:href="#New_Symbol"  width="28" height="24.7" id="XMLID_450_" x="-14" y="-12.4" transform="matrix(0.8624 0.6267 0.6267 -0.8624 1720.365 844.2657)" style="overflow:visible;opacity:0.62;"/>
	
		<use xlink:href="#New_Symbol"  width="28" height="24.7" id="XMLID_465_" x="-14" y="-12.4" transform="matrix(1.0116 0.4636 0.4636 -1.0116 1822.7733 738.2738)" style="overflow:visible;opacity:0.5021;"/>
	
		<use xlink:href="#New_Symbol"  width="28" height="24.7" id="XMLID_464_" x="-14" y="-12.4" transform="matrix(0.833 0.7825 0.7825 -0.833 1819.2991 786.0723)" style="overflow:visible;opacity:0.3465;"/>
	
		<use xlink:href="#New_Symbol"  width="28" height="24.7" id="XMLID_459_" x="-14" y="-12.4" transform="matrix(0.6642 0.9777 0.9777 -0.6642 1777.984 783.9113)" style="overflow:visible;opacity:0.1782;"/>
	
		<use xlink:href="#New_Symbol"  width="28" height="24.7" id="XMLID_463_" x="-14" y="-12.4" transform="matrix(1.2349 -6.172658e-002 -6.172658e-002 -1.2349 1816.1793 533.0283)" style="overflow:visible;opacity:0.7258;"/>
	
		<use xlink:href="#New_Symbol"  width="28" height="24.7" id="XMLID_458_" x="-14" y="-12.4" transform="matrix(0.9774 -0.6737 -0.6737 -0.9774 1792.8943 431.5506)" style="overflow:visible;opacity:0.6401;"/>
	
		<use xlink:href="#New_Symbol"  width="28" height="24.7" id="XMLID_457_" x="-14" y="-12.4" transform="matrix(1.0332 -0.6629 -0.6629 -1.0332 1792.2782 466.5491)" style="overflow:visible;opacity:0.6524;"/>
	
		<use xlink:href="#New_Symbol"  width="28" height="24.7" id="XMLID_456_" x="-14" y="-12.4" transform="matrix(1.1435 -0.2544 -0.2544 -1.1435 1799.5518 393.2845)" style="overflow:visible;opacity:0.5864;"/>
	
		<use xlink:href="#New_Symbol"  width="28" height="24.7" id="XMLID_429_" x="-14" y="-12.4" transform="matrix(0.9988 -4.907549e-002 -4.907549e-002 -0.9988 1471.6914 497.2184)" style="overflow:visible;opacity:0.7019;"/>
	
		<use xlink:href="#New_Symbol"  width="28" height="24.7" id="XMLID_433_" x="-14" y="-12.4" transform="matrix(0.9986 -5.291546e-002 -5.291546e-002 -0.9986 1525.9952 502.855)" style="overflow:visible;opacity:0.6366;"/>
	
		<use xlink:href="#New_Symbol"  width="28" height="24.7" id="XMLID_422_" x="-14" y="-12.4" transform="matrix(0.8313 -0.5814 -0.5814 -0.8313 1309.9751 319.6163)" style="overflow:visible;opacity:0.602;"/>
	
		<use xlink:href="#New_Symbol"  width="28" height="24.7" id="XMLID_395_" x="-14" y="-12.4" transform="matrix(0.9775 0.211 0.211 -0.9775 952.6646 354.4252)" style="overflow:visible;opacity:0.9986;"/>
	
		<use xlink:href="#New_Symbol"  width="28" height="24.7" id="XMLID_417_" x="-14" y="-12.4" transform="matrix(0.9989 -0.3129 -0.3129 -0.9989 1237.1796 307.0982)" style="overflow:visible;opacity:0.5754;"/>
	
		<use xlink:href="#New_Symbol"  width="28" height="24.7" id="XMLID_413_" x="-14" y="-12.4" transform="matrix(0.901 0.4415 0.4415 -0.901 1221.5748 143.143)" style="overflow:visible;opacity:0.7484;"/>
	
		<use xlink:href="#New_Symbol"  width="28" height="24.7" id="XMLID_380_" x="-14" y="-12.4" transform="matrix(0.8714 -0.4906 -0.4906 -0.8714 741.6807 316.8001)" style="overflow:visible;opacity:0.7371;"/>
	
		<use xlink:href="#New_Symbol"  width="28" height="24.7" id="XMLID_377_" x="-14" y="-12.4" transform="matrix(0.9654 -0.2608 -0.2608 -0.9654 726.0899 171.2312)" style="overflow:visible;"/>
	
		<use xlink:href="#New_Symbol"  width="28" height="24.7" id="XMLID_350_" x="-14" y="-12.4" transform="matrix(0.9977 6.708925e-002 6.708925e-002 -0.9977 389.0967 362.8317)" style="overflow:visible;"/>
	
		<use xlink:href="#New_Symbol"  width="28" height="24.7" id="XMLID_360_" x="-14" y="-12.4" transform="matrix(0.9984 5.616148e-002 5.616148e-002 -0.9984 464.6251 304.05)" style="overflow:visible;opacity:0.7846;"/>
	
		<use xlink:href="#New_Symbol"  width="28" height="24.7" id="XMLID_343_" x="-14" y="-12.4" transform="matrix(1.0623 0.1507 0.1507 -1.0623 282.7611 292.406)" style="overflow:visible;opacity:0.9089;"/>
	
		<use xlink:href="#New_Symbol"  width="28" height="24.7" id="XMLID_340_" x="-14" y="-12.4" transform="matrix(1.0604 -0.4021 -0.4021 -1.0604 216.4887 402.571)" style="overflow:visible;"/>
	
		<use xlink:href="#New_Symbol"  width="28" height="24.7" id="XMLID_339_" x="-14" y="-12.4" transform="matrix(0.9506 0.3719 0.3719 -0.9506 219.5989 147.7582)" style="overflow:visible;opacity:0.747;"/>
	
		<use xlink:href="#New_Symbol"  width="28" height="24.7" id="XMLID_333_" x="-14" y="-12.4" transform="matrix(1.1579 -6.721739e-002 -6.721739e-002 -1.1579 175.1807 151.5138)" style="overflow:visible;opacity:0.507;"/>
	
		<use xlink:href="#New_Symbol"  width="28" height="24.7" id="XMLID_330_" x="-14" y="-12.4" transform="matrix(0.8102 0.5861 0.5861 -0.8102 130.1116 38.5479)" style="overflow:visible;"/>
	
		<use xlink:href="#New_Symbol"  width="28" height="24.7" id="XMLID_332_" x="-14" y="-12.4" transform="matrix(0.909 0.4168 0.4168 -0.909 170.4595 19.9831)" style="overflow:visible;"/>
	
		<use xlink:href="#New_Symbol"  width="28" height="24.7" id="XMLID_363_" x="-14" y="-12.4" transform="matrix(0.9999 -1.266113e-002 -1.266113e-002 -0.9999 522.6588 31.864)" style="overflow:visible;opacity:0.6356;"/>
	
		<use xlink:href="#New_Symbol"  width="28" height="24.7" id="XMLID_362_" x="-14" y="-12.4" transform="matrix(0.8847 -0.4662 -0.4662 -0.8847 506.7512 141.6904)" style="overflow:visible;opacity:0.4373;"/>
	
		<use xlink:href="#New_Symbol"  width="28" height="24.7" id="XMLID_325_" x="-14" y="-12.4" transform="matrix(0.957 -0.29 -0.29 -0.957 63.6034 268.5605)" style="overflow:visible;opacity:0.6816;"/>
	
		<use xlink:href="#New_Symbol"  width="28" height="24.7" id="XMLID_324_" x="-14" y="-12.4" transform="matrix(0.9756 -0.2197 -0.2197 -0.9756 45.3797 352.3254)" style="overflow:visible;opacity:0.4827;"/>
	
		<use xlink:href="#New_Symbol"  width="28" height="24.7" id="XMLID_331_" x="-14" y="-12.4" transform="matrix(1.0775 -6.162422e-002 -6.162422e-002 -1.0775 184.6077 205.1485)" style="overflow:visible;opacity:0.2865;"/>
	
		<use xlink:href="#New_Symbol"  width="28" height="24.7" id="XMLID_327_" x="-14" y="-12.4" transform="matrix(0.9903 -0.1391 -0.1391 -0.9903 106.412 441.9041)" style="overflow:visible;opacity:0.922;"/>
	
		<use xlink:href="#New_Symbol"  width="28" height="24.7" id="XMLID_345_" x="-14" y="-12.4" transform="matrix(0.9823 -0.3224 -0.3224 -0.9823 316.6585 539.0801)" style="overflow:visible;opacity:0.6381;"/>
	
		<use xlink:href="#New_Symbol"  width="28" height="24.7" id="XMLID_338_" x="-14" y="-12.4" transform="matrix(0.9616 -0.2745 -0.2745 -0.9616 218.2473 629.723)" style="overflow:visible;opacity:0.816;"/>
	
		<use xlink:href="#New_Symbol"  width="28" height="24.7" id="XMLID_337_" x="-14" y="-12.4" transform="matrix(0.9723 0.5999 0.5999 -0.9723 218.933 811.7231)" style="overflow:visible;"/>
	
		<use xlink:href="#New_Symbol"  width="28" height="24.7" id="XMLID_342_" x="-14" y="-12.4" transform="matrix(0.9953 -9.716343e-002 -9.716343e-002 -0.9953 279.8484 724.813)" style="overflow:visible;"/>
	
		<use xlink:href="#New_Symbol"  width="28" height="24.7" id="XMLID_329_" x="-14" y="-12.4" transform="matrix(1.3961 0.5745 0.5745 -1.3961 149.8467 772.4459)" style="overflow:visible;"/>
	
		<use xlink:href="#New_Symbol"  width="28" height="24.7" id="XMLID_344_" x="-14" y="-12.4" transform="matrix(0.9788 0.2049 0.2049 -0.9788 326.3643 741.6276)" style="overflow:visible;opacity:0.8217;"/>
	
		<use xlink:href="#New_Symbol"  width="28" height="24.7" id="XMLID_347_" x="-14" y="-12.4" transform="matrix(0.9057 0.424 0.424 -0.9057 351.5796 810.9114)" style="overflow:visible;opacity:0.7012;"/>
	
		<use xlink:href="#New_Symbol"  width="28" height="24.7" id="XMLID_390_" x="-14" y="-12.4" transform="matrix(0.9094 0.5585 0.5585 -0.9094 917.4735 701.7228)" style="overflow:visible;opacity:0.8732;"/>
	
		<use xlink:href="#New_Symbol"  width="28" height="24.7" id="XMLID_379_" x="-14" y="-12.4" transform="matrix(0.7084 0.7107 0.7107 -0.7084 764.2137 670.7388)" style="overflow:visible;opacity:0.9713;"/>
	
		<use xlink:href="#New_Symbol"  width="28" height="24.7" id="XMLID_385_" x="-14" y="-12.4" transform="matrix(0.9826 0.2076 0.2076 -0.9826 815.5475 819.2599)" style="overflow:visible;"/>
	
		<use xlink:href="#New_Symbol"  width="28" height="24.7" id="XMLID_388_" x="-14" y="-12.4" transform="matrix(0.884 0.4674 0.4674 -0.884 852.251 589.0821)" style="overflow:visible;opacity:0.7684;"/>
	
		<use xlink:href="#New_Symbol"  width="28" height="24.7" id="XMLID_371_" x="-14" y="-12.4" transform="matrix(0.7732 -0.6342 -0.6342 -0.7732 650.667 593.0029)" style="overflow:visible;opacity:0.8714;"/>
	
		<use xlink:href="#New_Symbol"  width="28" height="24.7" id="XMLID_384_" x="-14" y="-12.4" transform="matrix(0.8368 -0.5475 -0.5475 -0.8368 835.7626 396.1147)" style="overflow:visible;opacity:0.4641;"/>
	
		<use xlink:href="#New_Symbol"  width="28" height="24.7" id="XMLID_370_" x="-14" y="-12.4" transform="matrix(0.996 8.919583e-002 8.919583e-002 -0.996 655.0217 69.4642)" style="overflow:visible;opacity:0.8207;"/>
	
		<use xlink:href="#New_Symbol"  width="28" height="24.7" id="XMLID_369_" x="-14" y="-12.4" transform="matrix(0.996 -8.908562e-002 -8.908562e-002 -0.996 624.9599 194.4545)" style="overflow:visible;"/>
	
		<use xlink:href="#New_Symbol"  width="28" height="24.7" id="XMLID_368_" x="-14" y="-12.4" transform="matrix(0.9077 -0.4195 -0.4195 -0.9077 617.7202 116.7014)" style="overflow:visible;opacity:0.9466;"/>
	
		<use xlink:href="#New_Symbol"  width="28" height="24.7" id="XMLID_394_" x="-14" y="-12.4" transform="matrix(0.9494 -0.3142 -0.3142 -0.9494 953.8503 187.0024)" style="overflow:visible;opacity:0.846;"/>
	
		<use xlink:href="#New_Symbol"  width="28" height="24.7" id="XMLID_404_" x="-14" y="-12.4" transform="matrix(0.976 -0.2179 -0.2179 -0.976 1080.6953 169.0285)" style="overflow:visible;opacity:0.7755;"/>
	
		<use xlink:href="#New_Symbol"  width="28" height="24.7" id="XMLID_389_" x="-14" y="-12.4" transform="matrix(0.9974 7.187434e-002 7.187434e-002 -0.9974 923.9882 369.0619)" style="overflow:visible;"/>
	
		<use xlink:href="#New_Symbol"  width="28" height="24.7" id="XMLID_426_" x="-14" y="-12.4" transform="matrix(1.0073 -0.8316 -0.8316 -1.0073 1402.6835 236.4445)" style="overflow:visible;opacity:0.9884;"/>
	
		<use xlink:href="#New_Symbol"  width="28" height="24.7" id="XMLID_421_" x="-14" y="-12.4" transform="matrix(0.9957 -9.231086e-002 -9.231086e-002 -0.9957 1325.302 525.7733)" style="overflow:visible;"/>
	
		<use xlink:href="#New_Symbol"  width="28" height="24.7" id="XMLID_425_" x="-14" y="-12.4" transform="matrix(0.9388 -0.3445 -0.3445 -0.9388 1392.1738 488.8569)" style="overflow:visible;"/>
	
		<use xlink:href="#New_Symbol"  width="28" height="24.7" id="XMLID_412_" x="-14" y="-12.4" transform="matrix(0.7646 0.6506 0.6506 -0.7646 1209.1617 602.3245)" style="overflow:visible;opacity:0.9616;"/>
	
		<use xlink:href="#New_Symbol"  width="28" height="24.7" id="XMLID_402_" x="-14" y="-12.4" transform="matrix(1.1027 0.152 0.152 -1.1027 1073.3683 730.8016)" style="overflow:visible;opacity:0.931;"/>
	
		<use xlink:href="#New_Symbol"  width="28" height="24.7" id="XMLID_397_" x="-14" y="-12.4" transform="matrix(1.0605 8.479681e-002 8.479681e-002 -1.0605 1032.0999 767.7483)" style="overflow:visible;opacity:0.9915;"/>
	
		<use xlink:href="#New_Symbol"  width="28" height="24.7" id="XMLID_383_" x="-14" y="-12.4" transform="matrix(0.969 0.3051 0.3051 -0.969 827.7315 801.6514)" style="overflow:visible;"/>
	
		<use xlink:href="#New_Symbol"  width="28" height="24.7" id="XMLID_355_" x="-14" y="-12.4" transform="matrix(0.8023 0.5969 0.5969 -0.8023 442.5332 781.4977)" style="overflow:visible;opacity:0.8538;"/>
	
		<use xlink:href="#New_Symbol"  width="28" height="24.7" id="XMLID_354_" x="-14" y="-12.4" transform="matrix(0.8182 0.5749 0.5749 -0.8182 425.1036 805.9293)" style="overflow:visible;opacity:0.8232;"/>
	
		<use xlink:href="#New_Symbol"  width="28" height="24.7" id="XMLID_359_" x="-14" y="-12.4" transform="matrix(0.3671 -0.9354 -0.9354 -0.3671 482.9449 629.571)" style="overflow:visible;opacity:0.352;"/>
	
		<use xlink:href="#New_Symbol"  width="28" height="24.7" id="XMLID_367_" x="-14" y="-12.4" transform="matrix(0.6054 -0.7959 -0.7959 -0.6054 647.3257 531.7961)" style="overflow:visible;opacity:0.8915;"/>
	
		<use xlink:href="#New_Symbol"  width="28" height="24.7" id="XMLID_387_" x="-14" y="-12.4" transform="matrix(0.9754 -0.2206 -0.2206 -0.9754 852.9016 295.6759)" style="overflow:visible;opacity:0.7934;"/>
	
		<use xlink:href="#New_Symbol"  width="28" height="24.7" id="XMLID_420_" x="-14" y="-12.4" transform="matrix(1.1939 2.188647e-002 2.188647e-002 -1.1939 1330.2866 210.8292)" style="overflow:visible;opacity:0.9799;"/>
	
		<use xlink:href="#New_Symbol"  width="28" height="24.7" id="XMLID_423_" x="-14" y="-12.4" transform="matrix(1.1957 0.3018 0.3018 -1.1957 1366.7896 161.4851)" style="overflow:visible;opacity:0.7816;"/>
	
		<use xlink:href="#New_Symbol"  width="28" height="24.7" id="XMLID_416_" x="-14" y="-12.4" transform="matrix(0.964 -0.2658 -0.2658 -0.964 1260.6863 17.3837)" style="overflow:visible;opacity:0.9685;"/>
	
		<use xlink:href="#New_Symbol"  width="28" height="24.7" id="XMLID_401_" x="-14" y="-12.4" transform="matrix(0.9992 -4.049404e-002 -4.049404e-002 -0.9992 1061.202 36.1145)" style="overflow:visible;opacity:0.9842;"/>
	
		<use xlink:href="#New_Symbol"  width="28" height="24.7" id="XMLID_393_" x="-14" y="-12.4" transform="matrix(0.9636 -0.2674 -0.2674 -0.9636 944.7209 86.396)" style="overflow:visible;opacity:0.7301;"/>
	
		<use xlink:href="#New_Symbol"  width="28" height="24.7" id="XMLID_392_" x="-14" y="-12.4" transform="matrix(0.9322 -0.3621 -0.3621 -0.9322 927.0953 105.4361)" style="overflow:visible;opacity:0.7223;"/>
	
		<use xlink:href="#New_Symbol"  width="28" height="24.7" id="XMLID_443_" x="-14" y="-12.4" transform="matrix(0.7164 -0.6977 -0.6977 -0.7164 1592.4071 172.9302)" style="overflow:visible;opacity:0.235;"/>
	
		<use xlink:href="#New_Symbol"  width="28" height="24.7" id="XMLID_449_" x="-14" y="-12.4" transform="matrix(1.152 7.312924e-002 7.312924e-002 -1.152 1731.5481 311.2255)" style="overflow:visible;opacity:0.661;"/>
	
		<use xlink:href="#New_Symbol"  width="28" height="24.7" id="XMLID_447_" x="-14" y="-12.4" transform="matrix(0.8801 -0.4747 -0.4747 -0.8801 1659.6096 497.4182)" style="overflow:visible;"/>
	
		<use xlink:href="#New_Symbol"  width="28" height="24.7" id="XMLID_419_" x="-14" y="-12.4" transform="matrix(0.771 0.8208 0.8208 -0.771 1346.3892 647.5565)" style="overflow:visible;opacity:0.7654;"/>
	
		<use xlink:href="#New_Symbol"  width="28" height="24.7" id="XMLID_409_" x="-14" y="-12.4" transform="matrix(1.0646 0.2007 0.2007 -1.0646 1193.8977 737.8519)" style="overflow:visible;opacity:0.9369;"/>
	
		<use xlink:href="#New_Symbol"  width="28" height="24.7" id="XMLID_408_" x="-14" y="-12.4" transform="matrix(1 0 0 -1 1190 846.0909)" style="overflow:visible;"/>
	
		<use xlink:href="#New_Symbol"  width="28" height="24.7" id="XMLID_411_" x="-14" y="-12.4" transform="matrix(1.021 7.047752e-002 7.047752e-002 -1.021 1227.0286 771.4567)" style="overflow:visible;opacity:0.9936;"/>
	
		<use xlink:href="#New_Symbol"  width="28" height="24.7" id="XMLID_406_" x="-14" y="-12.4" transform="matrix(0.9511 -0.3088 -0.3088 -0.9511 1127.2437 465.4395)" style="overflow:visible;opacity:0.9982;"/>
	
		<use xlink:href="#New_Symbol"  width="28" height="24.7" id="XMLID_403_" x="-14" y="-12.4" transform="matrix(0.854 -0.5203 -0.5203 -0.854 1097.5272 417.6539)" style="overflow:visible;opacity:0.8075;"/>
	
		<use xlink:href="#New_Symbol"  width="28" height="24.7" id="XMLID_323_" x="-14" y="-12.4" transform="matrix(0.9992 4.044043e-002 4.044043e-002 -0.9992 44.7441 846.5941)" style="overflow:visible;"/>
	
		<use xlink:href="#New_Symbol"  width="28" height="24.7" id="XMLID_321_" x="-14" y="-12.4" transform="matrix(1.0667 -7.070709e-002 -7.070709e-002 -1.0667 17.7213 694.1389)" style="overflow:visible;"/>
	
		<use xlink:href="#New_Symbol"  width="28" height="24.7" id="XMLID_320_" x="-14" y="-12.4" transform="matrix(1.1665 3.012565e-002 3.012565e-002 -1.1665 21.4215 566.7775)" style="overflow:visible;opacity:0.9882;"/>
	
		<use xlink:href="#New_Symbol"  width="28" height="24.7" id="XMLID_322_" x="-14" y="-12.4" transform="matrix(0.989 -0.168 -0.168 -0.989 49.4208 494.9942)" style="overflow:visible;opacity:0.9199;"/>
	
		<use xlink:href="#New_Symbol"  width="28" height="24.7" id="XMLID_467_" x="-14" y="-12.4" transform="matrix(0.9726 0.2326 0.2326 -0.9726 1908.3439 853.2094)" style="overflow:visible;opacity:0.9983;"/>
	
		<use xlink:href="#New_Symbol"  width="28" height="24.7" id="XMLID_454_" x="-14" y="-12.4" transform="matrix(0.9487 -0.4102 -0.4102 -0.9487 1765.0691 666.2591)" style="overflow:visible;opacity:0.625;"/>
	
		<use xlink:href="#New_Symbol"  width="28" height="24.7" id="XMLID_453_" x="-14" y="-12.4" transform="matrix(1.0538 -0.1253 -0.1253 -1.0538 1748.5494 563.2402)" style="overflow:visible;opacity:0.8228;"/>
	
		<use xlink:href="#New_Symbol"  width="28" height="24.7" id="XMLID_452_" x="-14" y="-12.4" transform="matrix(0.8631 -0.7216 -0.7216 -0.8631 1745.9507 496.7482)" style="overflow:visible;opacity:0.8368;"/>
	
		<use xlink:href="#New_Symbol"  width="28" height="24.7" id="XMLID_427_" x="-14" y="-12.4" transform="matrix(0.3792 -0.9253 -0.9253 -0.3792 1443.8513 362.5117)" style="overflow:visible;opacity:0.6353;"/>
	
		<use xlink:href="#New_Symbol"  width="28" height="24.7" id="XMLID_444_" x="-14" y="-12.4" transform="matrix(0.9333 -0.3591 -0.3591 -0.9333 1651.3688 224.2895)" style="overflow:visible;opacity:0.6305;"/>
	
		<use xlink:href="#New_Symbol"  width="28" height="24.7" id="XMLID_455_" x="-14" y="-12.4" transform="matrix(1 -7.857274e-003 -7.857274e-003 -1 1775.4532 111.1635)" style="overflow:visible;"/>
	
		<use xlink:href="#New_Symbol"  width="28" height="24.7" id="XMLID_462_" x="-14" y="-12.4" transform="matrix(0.9922 -0.1246 -0.1246 -0.9922 1843.1379 52.5819)" style="overflow:visible;"/>
	
		<use xlink:href="#New_Symbol"  width="28" height="24.7" id="XMLID_442_" x="-14" y="-12.4" transform="matrix(0.8337 -0.5522 -0.5522 -0.8337 1587.4738 412.0631)" style="overflow:visible;opacity:0.9833;"/>
	
		<use xlink:href="#New_Symbol"  width="28" height="24.7" id="XMLID_441_" x="-14" y="-12.4" transform="matrix(0.506 -0.8625 -0.8625 -0.506 1598.9496 280.9771)" style="overflow:visible;opacity:0.9811;"/>
	
		<use xlink:href="#New_Symbol"  width="28" height="24.7" id="XMLID_440_" x="-14" y="-12.4" transform="matrix(0.9836 0.1801 0.1801 -0.9836 1605.2305 104.7522)" style="overflow:visible;opacity:0.5412;"/>
	
		<use xlink:href="#New_Symbol"  width="28" height="24.7" id="XMLID_439_" x="-14" y="-12.4" transform="matrix(0.7491 0.6625 0.6625 -0.7491 1614.4996 57.9903)" style="overflow:visible;"/>
	
		<use xlink:href="#New_Symbol"  width="28" height="24.7" id="XMLID_438_" x="-14" y="-12.4" transform="matrix(0.8141 0.5808 0.5808 -0.8141 1615.1809 24.7132)" style="overflow:visible;"/>
	
		<use xlink:href="#New_Symbol"  width="28" height="24.7" id="XMLID_366_" x="-14" y="-12.4" transform="matrix(0.8663 0.6526 0.6526 -0.8663 557.7813 809.7596)" style="overflow:visible;opacity:0.8625;"/>
	
		<use xlink:href="#New_Symbol"  width="28" height="24.7" id="XMLID_365_" x="-14" y="-12.4" transform="matrix(0.9937 0.276 0.276 -0.9937 541.3309 694.5317)" style="overflow:visible;opacity:0.3456;"/>
	
		<use xlink:href="#New_Symbol"  width="28" height="24.7" id="XMLID_376_" x="-14" y="-12.4" transform="matrix(0.9254 0.379 0.379 -0.9254 701.2431 236.2494)" style="overflow:visible;"/>
	
		<use xlink:href="#New_Symbol"  width="28" height="24.7" id="XMLID_382_" x="-14" y="-12.4" transform="matrix(0.9812 -0.193 -0.193 -0.9812 836.5546 531.8937)" style="overflow:visible;opacity:0.6772;"/>
	
		<use xlink:href="#New_Symbol"  width="28" height="24.7" id="XMLID_375_" x="-14" y="-12.4" transform="matrix(0.651 -0.7591 -0.7591 -0.651 714.7719 553.4221)" style="overflow:visible;opacity:0.7923;"/>
	
		<use xlink:href="#New_Symbol"  width="28" height="24.7" id="XMLID_364_" x="-14" y="-12.4" transform="matrix(1.24 -0.2111 -0.2111 -1.24 548.3793 375.6268)" style="overflow:visible;opacity:0.8117;"/>
	
		<use xlink:href="#New_Symbol"  width="28" height="24.7" id="XMLID_374_" x="-14" y="-12.4" transform="matrix(0.8092 0.5902 0.5902 -0.8092 656.998 238.5481)" style="overflow:visible;"/>
	
		<use xlink:href="#New_Symbol"  width="28" height="24.7" id="XMLID_353_" x="-14" y="-12.4" transform="matrix(0.9127 -0.4085 -0.4085 -0.9127 455.3686 97.4124)" style="overflow:visible;opacity:0.21;"/>
	
		<use xlink:href="#New_Symbol"  width="28" height="24.7" id="XMLID_349_" x="-14" y="-12.4" transform="matrix(0.9874 -0.1581 -0.1581 -0.9874 403.3046 141.8511)" style="overflow:visible;opacity:0.4968;"/>
	
		<use xlink:href="#New_Symbol"  width="28" height="24.7" id="XMLID_352_" x="-14" y="-12.4" transform="matrix(0.962 -0.2731 -0.2731 -0.962 451.9049 167.0906)" style="overflow:visible;opacity:0.3784;"/>
	
		<use xlink:href="#New_Symbol"  width="28" height="24.7" id="XMLID_336_" x="-14" y="-12.4" transform="matrix(0.9519 0.3064 0.3064 -0.9519 231.1917 77.4532)" style="overflow:visible;"/>
</g>
</svg>
