<?xml version="1.0" encoding="utf-8"?>
<!-- Generator: Adobe Illustrator 19.0.0, SVG Export Plug-In . SVG Version: 6.00 Build 0)  -->
<svg version="1.1" id="Layer_1" xmlns="http://www.w3.org/2000/svg" xmlns:xlink="http://www.w3.org/1999/xlink" x="0px" y="0px"
	 viewBox="0 0 292.1 426.2" style="enable-background:new 0 0 292.1 426.2;" xml:space="preserve">
<style type="text/css">
	.st0{fill:#FDD500;}
	.st1{fill:#231F20;}
	.st2{fill:none;}
	.st3{fill:#009345;}
	.st4{fill:#37B34A;}
	.st5{fill:#AACF37;}
	.st6{fill:#8BC53F;}
	.st7{fill:#99D6D0;}
	.st8{fill:#33C5F3;}
	.st9{fill:#FFDB50;}
	.st10{fill:#FFE380;}
	.st11{fill:#C6AE4A;}
	.st12{fill:#27232D;}
	.st13{fill:#201C2B;}
	.st14{fill:#333143;}
	.st15{fill:#101028;}
	.st16{fill:#F06071;}
	.st17{fill:#FBB315;}
	.st18{fill:#DBF1FC;}
	.st19{fill:#39C5F3;}
	.st20{fill:#BAE5FA;}
	.st21{fill:#97DAF7;}
	.st22{fill:#F7ACAC;}
	.st23{fill:#FBD4D0;}
	.st24{fill:#ED2659;}
	.st25{fill:#C21B49;}
	.st26{fill:#FFD00A;}
	.st27{fill:#FFD852;}
	.st28{fill:#F68E1F;}
	.st29{fill:#FDC04D;}
	.st30{fill:#80C9A6;}
	.st31{fill:#1783A7;}
	.st32{fill:#6FCFF5;}
	.st33{fill:#B11F79;}
	.st34{fill:#D25B9E;}
	.st35{fill:#994B75;}
	.st36{fill:#5A4B54;}
	.st37{fill:#CB1D8A;}
	.st38{fill:#59ABC7;}
	.st39{fill:#0B6071;}
	.st40{fill:#009CBC;}
	.st41{fill:#1B75BB;}
	.st42{fill:#26A9E0;}
	.st43{fill:#003543;}
	.st44{fill:#00557C;}
	.st45{fill:#024658;}
	.st46{fill:#00728F;}
	.st47{fill:#FFEBA8;}
	.st48{fill:#F79526;}
	.st49{fill:#FBB331;}
	.st50{fill:#BF683C;}
	.st51{fill:#F05B22;}
	.st52{fill:#F37C44;}
	.st53{fill:#F6996C;}
	.st54{fill:#EE4223;}
	.st55{fill:#016787;}
	.st56{fill:#173E6C;}
	.st57{fill:#CAD1EA;}
	.st58{fill:#0362AB;}
	.st59{fill:#9DADD7;}
	.st60{fill:#768EC6;}
	.st61{fill:#4D76B8;}
	.st62{fill:#001220;}
	.st63{fill:#002C3A;}
	.st64{fill:#081923;}
	.st65{fill:#061D32;}
	.st66{fill:#7DC364;}
	.st67{fill:#CA268F;}
	.st68{fill:#00A69C;}
	.st69{fill:#030305;}
	.st70{fill:#FFFFFF;}
</style>
<g id="XMLID_974_">
	<polygon id="XMLID_1117_" class="st0" points="172.6,103.2 167.7,113.9 182.8,135.5 206.3,114.7 	"/>
	<polygon id="XMLID_1116_" class="st1" points="192.6,61.3 189.3,58.3 186.1,59.1 185.2,63.2 188.5,65.4 191.8,64.6 	"/>
	<polygon id="XMLID_1115_" class="st2" points="185.2,63.2 186.1,59.1 189.3,58.3 192.6,61.3 191.8,64.6 188.5,65.4 	"/>
	<polygon id="XMLID_1114_" class="st3" points="190.4,51.7 189.3,58.3 192.6,61.3 196.5,58.9 	"/>
	<polygon id="XMLID_1113_" class="st4" points="191.8,64.6 197.3,68.4 196.5,58.9 192.6,61.3 	"/>
	<polygon id="XMLID_1112_" class="st5" points="188,73.4 197.3,68.4 191.8,64.6 188.5,65.4 	"/>
	<polygon id="XMLID_1111_" class="st4" points="185.2,63.2 180.6,67.9 188,73.4 188.5,65.4 	"/>
	<polygon id="XMLID_1110_" class="st6" points="190.4,51.7 183.3,54.2 180.6,67.9 185.2,63.2 186.1,59.1 189.3,58.3 	"/>
	<polygon id="XMLID_1109_" class="st7" points="179.2,77.4 185,69.8 188.9,73.2 199.3,68.7 195.5,84 183.8,83.9 	"/>
	<polygon id="XMLID_1108_" class="st8" points="179.5,77.7 175.1,69.4 180.6,67.1 184.4,70 	"/>
	<polygon id="XMLID_1107_" class="st9" points="183.6,84 169.4,83.5 175.1,70.1 	"/>
	<polygon id="XMLID_1106_" class="st10" points="172.6,103.2 169.4,83.5 183.6,84 	"/>
	<polygon id="XMLID_1105_" class="st11" points="175.1,70.1 172.9,51.5 162.2,56.1 169.4,83.5 	"/>
	<polygon id="XMLID_1104_" class="st9" points="176.2,35 172.9,51.5 175.1,70.1 176.7,60.8 181.9,50.9 191.5,47.4 	"/>
	<polygon id="XMLID_1103_" class="st8" points="170.2,29 176.2,35 159.5,46.3 	"/>
	<polygon id="XMLID_1102_" class="st0" points="162.2,56.1 159.5,46.3 176.2,35 172.9,51.5 	"/>
	<polygon id="XMLID_1101_" class="st12" points="149.9,46 159.5,46.3 162.2,56.1 152.7,66 	"/>
	<polygon id="XMLID_1100_" class="st13" points="169.4,83.5 154.8,80.2 152.7,66 162.2,56.1 	"/>
	<polygon id="XMLID_1099_" class="st14" points="157.9,107 154.8,80.2 169.4,83.5 	"/>
	<polygon id="XMLID_1098_" class="st15" points="169.4,83.5 172.6,103.2 157.9,107 	"/>
	<polygon id="XMLID_1097_" class="st15" points="160,130 157.9,107 172.6,103.2 	"/>
	<g id="XMLID_1043_">
		<path id="XMLID_1096_" class="st16" d="M46.2,145.8c0.3-0.5,12.6-26.4,12.6-26.4l-38,14.2L46.2,145.8z"/>
		<polygon id="XMLID_1095_" class="st17" points="90.7,105.8 129.4,90 92.3,126.4 		"/>
		<polygon id="XMLID_1094_" class="st18" points="150,45.9 134.5,50.4 129.4,64.6 153.2,69.4 		"/>
		<polygon id="XMLID_1093_" class="st19" points="154.8,79.7 129.4,90 129.4,64.6 153.2,69.4 		"/>
		<polygon id="XMLID_1092_" class="st20" points="134.5,50.4 96.8,58.4 103.6,77.1 129.4,64.6 		"/>
		<polygon id="XMLID_1091_" class="st21" points="58.5,80.7 96.8,58.4 103.6,77.1 72,88.4 		"/>
		<polygon id="XMLID_1090_" class="st22" points="42.4,99.4 72,88.4 58.5,80.7 		"/>
		<polygon id="XMLID_1089_" class="st23" points="31.7,111.9 42.4,99.4 72,88.4 58.8,119.4 		"/>
		<polygon id="XMLID_1088_" class="st24" points="20.8,133.5 31.7,111.9 58.8,119.4 		"/>
		<polygon id="XMLID_1087_" class="st24" points="10.5,156.7 20.8,133.5 46.2,145.8 		"/>
		<polygon id="XMLID_1086_" class="st25" points="11.4,188.3 10.1,156.1 46.2,145.8 		"/>
		<polygon id="XMLID_1085_" class="st26" points="58.8,119.4 63.6,138.7 46.2,145.8 		"/>
		<polygon id="XMLID_1084_" class="st27" points="74.9,112.3 58.8,119.4 63.6,138.7 		"/>
		<polygon id="XMLID_1083_" class="st26" points="78.5,132.9 74.9,112.3 63.6,138.7 		"/>
		<polygon id="XMLID_1082_" class="st28" points="90.7,105.8 74.9,112.3 92.3,126.4 		"/>
		<polygon id="XMLID_1081_" class="st29" points="78.5,132.9 92.3,126.4 74.9,112.3 		"/>
		<polygon id="XMLID_1080_" class="st30" points="103.6,77.1 129.4,90 129.4,64.6 		"/>
		<polygon id="XMLID_1079_" class="st31" points="90.7,105.8 94.9,93.3 129.4,90 		"/>
		<polygon id="XMLID_1058_" class="st19" points="103.6,77.1 94.9,93.3 129.4,90 		"/>
		<polygon id="XMLID_1057_" class="st32" points="72,88.4 103.6,77.1 94.9,93.3 		"/>
		<polygon id="XMLID_1056_" class="st19" points="90.7,105.8 72,88.4 94.9,93.3 		"/>
		<polygon id="XMLID_1055_" class="st16" points="58.8,119.4 72,88.4 90.7,105.8 		"/>
		<polygon id="XMLID_1054_" class="st28" points="92.3,126.4 129.4,90 136.8,115.2 		"/>
		<polygon id="XMLID_1053_" class="st31" points="154.8,79.7 129.4,90 158.4,111 		"/>
		<polygon id="XMLID_1052_" class="st19" points="136.8,115.2 158.4,111 129.4,90 		"/>
		<polygon id="XMLID_1051_" class="st33" points="46.2,145.8 50.1,159.3 20.4,177.4 		"/>
		<polygon id="XMLID_1050_" class="st34" points="63.6,138.7 46.2,145.8 50.1,159.3 		"/>
		<polygon id="XMLID_1049_" class="st35" points="78.5,132.9 63.6,138.7 50.1,159.3 		"/>
		<polygon id="XMLID_1048_" class="st36" points="92.3,126.4 78.5,132.9 76.8,147.7 105.2,138.4 		"/>
		<polygon id="XMLID_1047_" class="st37" points="50.1,159.3 76.8,147.7 78.5,132.9 		"/>
		<polygon id="XMLID_1046_" class="st38" points="92.3,126.4 136.8,115.2 105.2,138.4 		"/>
		<polygon id="XMLID_1045_" class="st39" points="158.4,111 136.8,115.2 160.3,129.7 		"/>
		<polygon id="XMLID_1044_" class="st40" points="105.2,138.4 160.3,129.7 136.8,115.2 		"/>
	</g>
	<polygon id="XMLID_1042_" class="st41" points="170.2,29 194.5,20.8 194.3,29 176.2,35 	"/>
	<polygon id="XMLID_1041_" class="st42" points="218.6,23 194.5,20.8 194.3,29 	"/>
	<polygon id="XMLID_1040_" class="st43" points="220.3,38 218.6,23 194.3,29 	"/>
	<polygon id="XMLID_1039_" class="st10" points="176.2,35 194.3,29 220.3,38 191.5,47.4 	"/>
	<polygon id="XMLID_1038_" class="st41" points="218.6,23 258,53.9 241.3,56.7 220.3,38 	"/>
	<polygon id="XMLID_1037_" class="st0" points="191.5,47.4 220.3,38 203.8,58.6 	"/>
	<polygon id="XMLID_1036_" class="st0" points="205.2,73.4 203.8,58.6 224.7,55.3 226.8,82.9 	"/>
	<polygon id="XMLID_1035_" class="st10" points="241.3,56.7 236.4,52.8 224.7,55.3 226.8,82.9 	"/>
	<polygon id="XMLID_1034_" class="st9" points="203.8,58.6 220.3,38 236.4,52.8 224.7,55.3 	"/>
	<polygon id="XMLID_1033_" class="st9" points="241.3,56.7 255.6,76.9 226.8,82.9 	"/>
	<polygon id="XMLID_1032_" class="st44" points="258,53.9 241.3,56.7 255.6,76.9 264.9,79.4 	"/>
	<polygon id="XMLID_1031_" class="st0" points="226.8,82.9 244.9,136.3 263.8,124 255.6,76.9 	"/>
	<polygon id="XMLID_1030_" class="st45" points="264.9,79.4 255.6,76.9 263.8,124 276.7,111.7 	"/>
	<polygon id="XMLID_1029_" class="st0" points="226.8,82.9 206.3,114.7 195.4,83.8 205.2,73.4 	"/>
	<polygon id="XMLID_1028_" class="st9" points="244.9,136.3 226.8,82.9 206.3,114.7 	"/>
	<polygon id="XMLID_1027_" class="st11" points="195.4,83.8 183.6,84 172.6,103.2 206.3,114.7 	"/>
	<polygon id="XMLID_1026_" class="st10" points="160,130 167.7,113.9 182.8,135.5 161.7,157.1 	"/>
	<polygon id="XMLID_1025_" class="st0" points="244.9,136.3 245.2,167 196.7,153 206.3,114.7 	"/>
	<polygon id="XMLID_1024_" class="st9" points="182.8,135.5 206.3,114.7 196.7,153 	"/>
	<polygon id="XMLID_1023_" class="st9" points="263.8,124 244.9,136.3 245.2,167 263.5,152.2 	"/>
	<polygon id="XMLID_1022_" class="st43" points="276.7,111.7 263.8,124 276.1,139.1 	"/>
	<polygon id="XMLID_1021_" class="st46" points="263.5,152.2 276.1,139.1 263.8,124 	"/>
	<polygon id="XMLID_1020_" class="st47" points="182.8,135.5 161.7,157.1 165.5,185 203.8,180.4 196.7,153 	"/>
	<polygon id="XMLID_1019_" class="st9" points="245.2,167 196.7,153 203.8,180.4 	"/>
	<polygon id="XMLID_1018_" class="st0" points="263.5,152.2 245.2,167 258.3,174.4 	"/>
	<polygon id="XMLID_1017_" class="st43" points="276.1,139.1 263.5,152.2 258.3,174.4 274.7,182.3 285.1,152.7 	"/>
	<polygon id="XMLID_1016_" class="st0" points="245.2,167 203.8,180.4 215.3,201.7 	"/>
	<polygon id="XMLID_1015_" class="st9" points="258.3,174.4 245.2,167 234.8,214.6 	"/>
	<polygon id="XMLID_1014_" class="st48" points="215.3,201.7 234.8,214.6 245.2,167 	"/>
	<polygon id="XMLID_1013_" class="st49" points="203.8,180.4 215.3,201.7 156.2,223.1 165.5,185 	"/>
	<polygon id="XMLID_1012_" class="st0" points="234.8,214.6 215.3,201.7 213.2,243.9 	"/>
	<polygon id="XMLID_1011_" class="st50" points="156.2,223.1 194.5,233.5 215.3,201.7 	"/>
	<polygon id="XMLID_1010_" class="st51" points="155.4,242.3 156.2,223.1 194.5,233.5 	"/>
	<polygon id="XMLID_1009_" class="st52" points="213.2,243.9 194.5,233.5 215.3,201.7 	"/>
	<polygon id="XMLID_1008_" class="st53" points="155.4,242.3 155.7,263.9 174.6,237.9 	"/>
	<polygon id="XMLID_1007_" class="st54" points="194.5,233.5 174.6,237.9 181.1,259.2 	"/>
	<polygon id="XMLID_1006_" class="st0" points="213.2,243.9 204.1,255.4 181.1,259.2 194.5,233.5 	"/>
	<polygon id="XMLID_1005_" class="st55" points="274.7,182.3 258.3,174.4 234.8,214.6 	"/>
	<polygon id="XMLID_1004_" class="st56" points="213.2,243.9 234.8,214.6 256.1,255.1 189.9,269.1 204.1,255.4 	"/>
	<polygon id="XMLID_1003_" class="st48" points="181.1,259.2 189.9,269.1 204.1,255.4 	"/>
	<polygon id="XMLID_1002_" class="st52" points="155.7,263.9 181.1,259.2 174.6,237.9 	"/>
	<polygon id="XMLID_1001_" class="st54" points="189.9,269.1 173.7,270.7 181.1,259.2 	"/>
	<polygon id="XMLID_1000_" class="st48" points="155.7,263.9 173.7,270.7 181.1,259.2 	"/>
	<polygon id="XMLID_999_" class="st54" points="155.1,274 155.7,263.9 173.7,270.7 	"/>
	<polygon id="XMLID_998_" class="st57" points="189.9,269.1 173.7,270.7 155.1,274 183.6,318.9 	"/>
	<polygon id="XMLID_997_" class="st58" points="256.1,255.1 189.9,269.1 238.6,300 	"/>
	<polygon id="XMLID_996_" class="st59" points="183.6,318.9 189.9,269.1 238.6,300 	"/>
	<polygon id="XMLID_995_" class="st60" points="232.9,334 238.6,300 183.6,318.9 	"/>
	<polygon id="XMLID_994_" class="st2" points="267.1,320.8 232.9,334 238.6,300 	"/>
	<polygon id="XMLID_993_" class="st61" points="183.6,318.9 227.4,352.3 267.6,360 232.9,334 	"/>
	<polygon id="XMLID_992_" class="st2" points="267.1,320.8 283.8,332.3 267.6,360 232.9,334 	"/>
	<line id="XMLID_991_" class="st2" x1="292" y1="0" x2="292" y2="426.2"/>
	<polygon id="XMLID_990_" class="st62" points="285.1,152.7 291.7,162.6 291.7,191.6 274.7,182.3 	"/>
	<polygon id="XMLID_989_" class="st63" points="234.8,214.6 274.7,182.3 291.7,191.6 291.7,218.4 	"/>
	<polygon id="XMLID_988_" class="st62" points="255.9,256.2 291.7,218.4 291.7,269.4 	"/>
	<polygon id="XMLID_987_" class="st64" points="283.8,332.3 292.1,324 292.1,269.4 256.1,255.1 238.6,300 267.1,320.4 	"/>
	<polygon id="XMLID_986_" class="st58" points="232.9,334 238.6,300 267.1,320.4 	"/>
	<polygon id="XMLID_985_" class="st62" points="267.6,360 292,360 292,324 283.8,332.3 	"/>
	<polyline id="XMLID_984_" class="st65" points="267.1,320.4 283.8,332.3 267.6,360 232.9,334 	"/>
	<polygon id="XMLID_983_" class="st66" points="189.9,269.1 173.7,270.7 155.1,274 172.6,286.9 	"/>
	<polygon id="XMLID_982_" class="st67" points="10.4,156.1 0,200.4 11.7,188.3 	"/>
	<polygon id="XMLID_981_" class="st7" points="182,50.9 175.3,59.5 179.4,68.1 183.3,53.4 	"/>
	<polygon id="XMLID_980_" class="st68" points="175,70.2 175.4,59.3 182,66.4 	"/>
	<polygon id="XMLID_979_" class="st8" points="181.9,50.5 183.5,53.7 191,51.3 199.2,58.9 207.9,58.5 191.5,47.4 	"/>
	<polygon id="XMLID_978_" class="st68" points="197.7,70.9 195.4,83.8 206.7,75.6 207.9,58.5 197,59 	"/>
	<circle id="XMLID_977_" class="st69" cx="190.4" cy="64.2" r="13"/>
	<circle id="XMLID_976_" class="st70" cx="187.2" cy="60.8" r="3.3"/>
	<polygon id="XMLID_975_" class="st65" points="234.8,214.6 256.1,255.1 256.8,255.7 291.7,218.4 291.5,217.6 	"/>
</g>
</svg>
